<svg xmlns="http://www.w3.org/2000/svg" xmlns:xlink="http://www.w3.org/1999/xlink" width="1258" height="567" fill="none"
    xmlns:v="https://vecta.io/nano">
    <style>
        <![CDATA[
        .B {
            fill: #fff
        }

        .C {
            opacity: .66
        }

        .D {
            fill: #80413e
        }

        .E {
            fill: #ffa38f
        }

        .F {
            fill: #fce6d8
        }

        .G {
            fill: #c9c9c9
        }

        .H {
            fill: #eaeaea
        }

        .I {
            fill: #e2e2e2
        }

        .J {
            fill: #ddd
        }

        .K {
            fill: #562ba1
        }

        .L {
            fill: #28546b
        }

        .M {
            fill: #ff4f95
        }

        .N {
            opacity: .5
        }

        .O {
            fill: #104744
        }

        .P {
            fill: #ffdc8a
        }

        .Q {
            opacity: .22
        }

        .R {
            fill: #205d57
        }

        .S {
            fill: #ab5653
        }

        .T {
            fill: #032e49
        }

        .U {
            opacity: .35
        }

        .V {
            fill: #24225c
        }

        .W {
            fill: #fc5151
        }
        ]]>
    </style>
    <mask id="A" maskUnits="userSpaceOnUse" x="0" y="0" width="1284" height="567" mask-type="alpha">
        <path fill="#c4c4c4" d="M0 .647h1283.67v566.068H0z" />
    </mask>
    <g mask="url(#A)">
        <path opacity=".76"
            d="M1354.61 96.896c-28.32-9.527-57.36-9.405-83.73-1.533-30.77 9.179-63.73 4.842-91.7-10.921-7.44-4.18-15.45-7.594-24-10.067a112.18 112.18 0 0 0-26.67-4.372c-31.73-1.324-62.25-11.948-87.94-30.602-18.79-13.638-40.21-24.332-63.815-31.177C921.768-7.73 862.462.177 813.797 30.431c-23.548 14.648-44.084 33.964-60.508 56.293-7.559 10.276-33.895 72.317-41.959 70.122-29.261-7.942-60.003-7.89-87.453 6.532-20.587 10.816-35.009 26.074-45.007 44.571-10.398 19.229-29.923 31.944-51.73 33.442-2.525.174-4.964.47-7.228.906-13.725 2.63-26.666 9.37-38.005 17.347-27.572 19.351-55.562 49.083-64.044 81.688-46.087 177.136 43.596 49.135 87.941 61.989 42.307 12.262 86.443-10.694 101.108-51.59a112.07 112.07 0 0 0 38.005 19.437c42.725 12.384 86.844-1.689 114.834-32.57 25.551 30.968 60.351 54.847 101.822 66.883 99.524 28.861 203.157-20.431 245.307-111.716 26.51 4.076 52.78-1.55 74.69-14.63 15.24 38.422 47.41 69.669 90.18 82.071 75.6 21.928 154.74-23.462 173.33-100.865 16.61-69.269-22.94-140.733-90.47-163.446z"
            fill="#d6f6fd" />
        <path opacity=".47"
            d="M737.108 340.569c-36.228-15.484-75.818-9.353-105.062 12.105-9.44-18.463-25.516-33.633-46.435-41.541a87.02 87.02 0 0 0-26.474-5.521c-19.403-.923-38.11-8.239-52.079-21.754-15.083-14.596-33.319-26.423-54.203-34.33-82.158-31.091-173.966 10.328-205.056 92.486a173.44 173.44 0 0 0-2.438 6.967c-2.526-1.236-5.121-2.386-7.803-3.396-44.728-16.912-94.699 5.626-111.611 50.337-.018.034-.035.087-.053.122-2.351 6.252-9.109 9.614-15.449 7.506-2.752-.923-5.678-1.428-8.622-2.194-61.988-16.059-89.125 34.643-100.202 62.807-13.028 33.146 32.867 46.958 66.065 59.516 31.682 11.983 66.918-2.926 80.66-33.372a86.54 86.54 0 0 0 27.938 17.226c31.996 12.105 66.674 4.006 90.014-17.958 17.696 25.308 42.916 45.739 73.972 57.478 74.529 28.199 157.001-3.257 194.866-70.68 20.065 4.737 40.548 2.02 58.157-6.671 9.336 30.393 32.101 56.293 64.131 68.416 56.329 21.319 119.432-8.256 138.748-65.89 17.522-52.201-8.413-110.027-59.063-131.659z"
            fill="#d6f6fd" />
        <path
            d="M448.152 414.887s65.699-75.121 80.033-67.945c14.335 7.158 44.188-28.669 59.725-43.004s68.085-74.059 81.217-74.059 48.978-53.75 74.06-51.364 37.029 20.309 62.11 4.772 54.639-56.136 91.965-62.111c21.528-3.448 39.415 5.975 39.415 5.975l77.643 59.724 86.33 89.996-165.174 91.547-487.324 46.469z"
            class="L" />
        <path
            d="M597.698 344.886c-29.4 24.054-52.757 46.452-68.276 62.25l406.071-38.702 150.627-83.499-5.3-28.721-66.5-69.339-77.643-59.725s-17.887-9.423-39.415-5.974c-36.298 5.8-65.264 44.362-89.892 60.77-11.078 22.973-26.823 51.451-55.179 58.818-45.442 11.809-38.266 17.174-74.111 44.049s-24.593 14.439-80.382 60.073z"
            class="L Q" />
        <path
            d="M965.782 149.566c-7.908-11.251-29.122-22.399-29.122-22.399s-49.866 7.159-63.312 37.622-34.034 33.929-56.433 46.069c-22.399 12.158-46.801 54.744-63.382 55.144s-49.483 33.146-76.359 59.133-36.907-10.225-54.638-4.477c-56.137 18.149-99.14 86.008-99.14 86.008s166.319-1.794 185.147-8.953c18.811-7.158 220.035-70.767 220.035-70.767s51.034-30.951 51.399-37.622c.366-6.706 5.992-111.036-14.195-139.758z"
            class="L Q" />
        <path
            d="M773.545 402.19s8.935-89.282 29.244-93.897 96.075-53.577 108.006-73.467c53.245-88.69 77.525-94.473 94.245-81.34s26.28-1.202 38.21-20.309c11.95-19.107 84.27-107.5 105.45-84.805s62.98 93.166 85.68 103.912c22.69 10.747 21.49-9.562 41.8 11.949 20.31 21.493 46.59 87.192 46.59 87.192l14.33 79.876-89.57 58.68-473.985 12.209z"
            class="L" />
        <path
            d="M1276.18 164.267c-20.31-21.493-19.11-1.202-41.8-11.949-19.49-9.231-53.07-62.494-75.58-91.737-10.64 3.466-22.03 11.583-30.81 30.933-17.92 39.416-15.41 46.592-48.02 64.497-32.61 17.922-16.35 39.416-43.28 55.544-26.95 16.129-86.584 5.818-95.293 43.23-8.691 37.396-10.12 85.782-40.757 101.893-20.535 10.799-45.547 23.078-59.098 43.77l405.988-10.433 89.57-58.68-14.33-79.876s-26.28-65.699-46.59-87.192z"
            class="L Q" />
        <path
            d="M1327.94 337.327l8.36-10.415-13.53-75.453s-26.28-65.699-46.59-87.192-19.11-1.202-41.8-11.948c-11.57-5.469-28.06-26.44-44.3-48.682-7.68 10.938-16.56 59.986-33.49 46.592-23.11-18.271-34.85 12.976-42.55 73.223-2.72 21.197-42.01-12.401-74.36 5.608-32.34 18.01-25.08 75.087-94.05 118.16-18.567 11.583 29.801 47.986 32.971 58.697l268.929-15.919 80.41-52.671z"
            class="L Q" />
        <path
            d="M1154.38 279.362l-15.68-51.904-3.06 50.232-12.11-40.113-1.69 27.642-15.1-50.006-3.48 57.199-10.1-33.441-2.93 47.88h-.07l-10.49-34.73-2.05 33.79-6.39-21.127-.65 10.537-14.63-48.421-3.55 58.175-10.29-34.138-.39 6.113-6.34-18.445-4.67 47.097-9.38-27.276-3.66 36.89-1.15.122-8.9-25.917-2.72 27.276-.22.035-5.753-16.739-.871 8.692-13.585-39.52-4.738 47.915-9.579-27.851-.018.14-14.334-41.715-5.992 60.369-12.018-34.974-5.034 50.754-12.558-36.524-3.536 35.653-7.594-22.102-1.114 11.147-17.418-50.668-6.078 61.414-12.28-35.688-7.663 77.229 16.929-1.986 15.972-1.863 5.8-.68 25.099-2.926 232.993-27.188-3.59-30.76-3.34.401zm-330.011 89.734l-8.917-37.517-9.458 34.522-6.88-29.001-5.208 19.003-8.586-36.159-10.764 39.311-5.748-24.175-9.022 32.919-.07-.017-5.957-25.099-6.357 23.218-3.641-15.276-1.985 7.246-8.308-35.009-10.956 39.99-5.87-24.68-1.149 4.197-3.936-13.411-10.643 32.188-5.817-19.822-8.343 25.204-1.15-.018-5.538-18.846-6.166 18.655-.226-.018-3.571-12.157-1.968 5.939-8.413-28.739-10.834 32.763-5.939-20.257-.035.104-8.9-30.341-13.655 41.28-7.438-25.43-11.478 34.678-7.785-26.544-8.065 24.367-4.72-16.059-2.508 7.612-10.799-36.838-13.899 41.976-7.611-25.952-17.47 52.792 17.052.296 16.059.279 5.852.104 25.255.436 234.561 4.023.366-21.667-3.362-.07z"
            fill="#011c29" />
        <path
            d="M207.982 560.272s43.231-92.365 278.558-158.029c50.964-14.23 75.366-19.247 110.653-24.054 35.271-4.807 151.045 3.327 264.589-54.516 45.408-23.131 135.717-12.541 214.878-41.977 57.17-21.266 96.37-25.359 122.03-15.745 25.65 9.614 105.27 140.681 105.27 140.681v136.466L1142.4 565.81H813.675L523.43 577.027 339.014 564.19l-131.032-3.918z"
            fill="#488c6f" />
        <path opacity=".53"
            d="M1152.78 383.641s-39.49-9.963-69.33-14.37c-29.81-4.406-104.866 5.644-177.358 30.237s-116.07 1.724-141.342 14.004c0 0 36.628-16.46 62.528-15.188 25.883 1.271 64.741-7.786 92.017-15.676s86.195-42.255 157.345-30.55c26.08 4.284 76.14 31.543 76.14 31.543z"
            fill="#467260" />
        <path
            d="M824.526 444.897v-.035c0-6.81-5.522-12.349-12.349-12.349-1.724 0-3.379.366-4.86.993-1.968-7.089-8.447-12.297-16.163-12.297-3.257 0-6.288.941-8.865 2.543-3.205-4.859-8.187-7.995-13.778-7.995-7.437 0-13.777 5.522-16.337 13.307a17.3 17.3 0 0 0-12.106-4.946c-8.551 0-15.64 6.2-17.069 14.334-1.167-.574-2.455-.923-3.849-.923-4.372 0-7.977 3.17-8.709 7.316h114.085v.052z"
            class="O" />
        <path
            d="M924.52 444.897v-.035c0-10.172-8.238-18.41-18.41-18.41-2.578 0-5.034.54-7.263 1.498-2.926-10.573-12.593-18.324-24.088-18.324-4.86 0-9.371 1.411-13.22 3.797-4.79-7.245-12.21-11.931-20.553-11.931-11.095 0-20.553 8.239-24.35 19.856-4.667-4.546-11.025-7.367-18.061-7.367-12.75 0-23.322 9.231-25.447 21.371-1.742-.853-3.676-1.359-5.748-1.359-6.514 0-11.896 4.721-12.976 10.921H924.52v-.017z"
            class="R" />
        <path d="M857.219 369.445l8.796-1.48 31.125 29.818-8.622 1.011-31.299-29.349z" class="D" />
        <path d="M891.079 450.68l-53.733 8.796v-57.773l25.063-32.258 28.67 26.388v54.847z" class="F" />
        <path d="M891.079 450.68l-53.733 8.796v-57.773l25.063-32.258 28.67 26.388v54.847z" class="F" />
        <path d="M792.669 447.442l44.676 11.739v-55.98l-44.676-10.259v54.5z" class="F" />
        <path d="M864.203 370.909l-26.684 42.725-44.85-9.928.157-7.838 25.639-29.871 45.738 4.912z" class="F" />
        <path d="M866.014 369.445l-28.495 42.133-50.946-11.286v-1.463l79.441-29.384z" class="D" />
        <path d="M866.014 367.965l-28.495 42.15-50.946-11.286 31.892-36.35 47.549 5.486z" class="S" />
        <path
            d="M803.765 429.815l-7.403-1.62V411.84l7.403 1.62v16.355zm28.042 6.844l-7.403-1.62v-16.355l7.403 1.62v16.355zm-13.812 17.453l-7.42-2.055v-36.159l7.42 1.62v36.594z"
            class="T" />
        <path
            d="M822.871 367.967l-5.521 6.636-5.644 6.514-5.765 6.409-5.887 6.305 5.504-6.636 5.643-6.514 5.766-6.409 5.904-6.305z"
            class="D" />
        <use xlink:href="#T" class="D" />
        <use xlink:href="#T" x="2.438" y="12.924" class="D" />
        <use xlink:href="#T" x="-16.46" y="-1.359" class="D" />
        <path
            d="M844.05 378.922l-5.521 6.636-5.643 6.514-5.765 6.41-5.888 6.305 5.504-6.636 5.644-6.514 5.765-6.41 5.904-6.305zm-28.233-7.246c1.969.069 3.902.383 5.835.679l5.731 1.341c-1.969-.07-3.902-.383-5.835-.679l-5.731-1.341z"
            class="D" />
        <path
            d="M811.462 382.37c1.969.07 3.902.383 5.835.679l5.731 1.342c-1.969-.07-3.902-.384-5.835-.68l-5.731-1.341zm12.942 11.479c1.968.07 3.901.383 5.835.679l5.73 1.341c-1.968-.069-3.902-.383-5.835-.679l-5.73-1.341zm5.225-8.31c1.969.07 3.902.383 5.835.68l5.731 1.341c-1.969-.07-3.902-.383-5.835-.68l-5.731-1.341z"
            class="D" />
        <path
            d="M863.106 409.505l-11.722 2.631v-12.019l11.722-2.647v12.035zm19.141 19.3l-30.898 6.201v-12.019l30.898-6.2v12.018zm-3.03-22.261l-11.739 2.63v-12.018l11.739-2.647v12.035z"
            class="T" />
        <path d="M1005.51 366.153l10.71-1.219 37.99 24.75-10.52.836-38.18-24.367z" class="D" />
        <path d="M1046.81 433.61l-65.561 7.298V392.94l30.581-26.788 34.98 21.911v45.547z" class="F" />
        <path d="M1046.81 433.61l-65.561 7.298V392.94l30.581-26.788 34.98 21.911v45.547z" class="F" />
        <path d="M926.749 430.928l54.499 9.736v-46.487l-54.499-8.517v45.268z" class="F" />
        <path d="M1014.03 367.373l-32.573 35.479-54.708-8.256.174-6.496 31.299-24.803 55.808 4.076z" class="F" />
        <path d="M1016.22 366.152l-34.763 34.992-62.163-9.371v-1.219l96.926-24.402z" class="D" />
        <path d="M1016.22 364.934l-34.763 34.992-62.163-9.37 38.929-30.185 57.997 4.563z" class="S" />
        <path
            d="M940.283 417.499l-9.057-1.341V401.37l9.057 1.341v14.788zm34.207 5.679l-9.039-1.341v-14.788l9.039 1.341v14.788zm-16.86 13.272l-9.04-1.707v-30.01l9.04 1.341v30.376zm45.9-17.436l-10.751 1.463v-13.55l10.751-1.463v13.55zm18.37-2.316l-10.75 1.463V404.61l10.75-1.463v13.551zm17.38-1.95l-10.74 1.463V402.66l10.74-1.463v13.551zm-24.08-38.598l-17.039 17.226 35.739-2.857-18.7-14.369z"
            class="T" />
        <use xlink:href="#U" class="D" />
        <path
            d="M995.6 363.278l-6.81 5.574-6.915 5.434-7.002 5.312-7.123 5.173 6.81-5.573 6.914-5.435 7.002-5.312 7.124-5.173zm2.961 10.747l-6.81 5.573-6.915 5.435-7.001 5.312-7.124 5.173 6.81-5.574 6.915-5.434 7.002-5.312 7.123-5.173zM975.5 362.163l-6.81 5.574-6.915 5.434-7.002 5.313-7.124 5.172 6.811-5.573 6.914-5.434 7.002-5.313 7.124-5.173z"
            class="D" />
        <use xlink:href="#U" x="25.83" y="9.092" class="D" />
        <path
            d="M954.983 367.998c2.386 0 4.737.261 7.106.505l7.02 1.167c-2.387 0-4.738-.261-7.107-.505l-7.019-1.167zm-5.313 8.884c2.386 0 4.738.262 7.106.505l7.019 1.167c-2.386 0-4.737-.261-7.106-.505l-7.019-1.167zm22.156 2.629c2.386 0 4.737.262 7.106.506l7.019 1.167c-2.386 0-4.737-.262-7.106-.506l-7.019-1.167z"
            class="D" />
        <path
            d="M1033.71 445.665v-.017a7.8 7.8 0 0 0-7.8-7.803 7.95 7.95 0 0 0-3.09.627 10.6 10.6 0 0 0-10.22-7.769c-2.05 0-3.97.593-5.61 1.62-2.04-3.083-5.17-5.051-8.707-5.051-4.702 0-8.709 3.501-10.328 8.413a10.88 10.88 0 0 0-7.664-3.118c-5.399 0-9.893 3.919-10.799 9.057-.731-.366-1.55-.575-2.438-.575a5.58 5.58 0 0 0-5.504 4.634h72.16v-.018z"
            class="O" />
        <path
            d="M1053.81 451.308c0-3.501-2.82-6.322-6.31-6.322-.88 0-1.72.191-2.49.505-1.01-3.623-4.3-6.27-8.23-6.27-1.66 0-3.21.487-4.53 1.306-1.64-2.473-4.18-4.076-7.04-4.076-3.8 0-7.04 2.822-8.32 6.793-1.61-1.55-3.78-2.526-6.19-2.526-4.35 0-7.98 3.153-8.71 7.316-.59-.296-1.25-.47-1.96-.47-2.234 0-4.081 1.619-4.447 3.744h58.227z"
            class="R" />
        <path
            d="M507.807 474.995v-.035c0-7.472-6.061-13.551-13.551-13.551a13.71 13.71 0 0 0-5.347 1.098c-2.16-7.769-9.266-13.482-17.731-13.482-3.571 0-6.897 1.028-9.719 2.805-3.518-5.33-8.987-8.779-15.118-8.779-8.152 0-15.119 6.062-17.923 14.596-3.431-3.344-8.117-5.417-13.29-5.417-9.37 0-17.156 6.793-18.723 15.728-1.289-.627-2.7-1.01-4.233-1.01-4.79 0-8.743 3.466-9.545 8.029h125.18v.018z"
            class="O" />
        <path opacity=".21"
            d="M1294.52 425.13s-70.56-48.177-113.25-19.508-69.72 53.524-155.57 54.674c-85.852 1.132-184.435 23.862-223.276 49.744-38.824 25.865-205.526 19.525-259.451 61.031-53.907 41.506-160.572 114.136-160.572 114.136l498.837 25.326S1303.8 688.97 1322.95 672.98s19.78-201.711 19.78-201.711l-48.21-46.139z"
            fill="#467260" />
        <path d="M435.455 419.693l26.735-35.723-1.672 35.062-25.063.661z" class="D" />
        <path d="M598.552 477.746L482.081 492.08v-62.267l116.471-14.335v62.268z" class="F" />
        <path d="M441.446 473.74l40.635 18.341v-62.268L462.19 383.97l-20.744 34.661v55.109z" class="F" />
        <path d="M598.552 477.746L482.081 492.08v-62.267l116.471-14.335v62.268z" class="F" />
        <path d="M473.93 406.77l-3.693-3.762 11.844 37.5 116.471-11.705v-22.19" class="F" />
        <path d="M606.216 420.826l-124.309 13.08-19.717-49.936 144.026 35.062v1.794z" class="D" />
        <path d="M606.216 419.032L482.081 431.05l-19.891-47.08 113.528-9.022 30.498 44.084z" class="S" />
        <path
            d="M520.417 466.129l-14.996 1.777v-23.009l14.996-1.428v22.66zm27.398 17.714l-14.997 1.794v-42.725l14.997-1.428v42.359zm27.38-21.703l-14.997 1.794v-23.009l14.997-1.445v22.66zm-109.852-8.465l-12.941-1.968V431.05l12.941 1.968v20.657z"
            class="T" />
        <path d="M606.216 419.032L482.081 431.05l-19.891-47.08 113.528-9.022 30.498 44.084z" class="S" />
        <path
            d="M529.475 388.516l4.981 7.036 4.842 7.141 4.703 7.229 4.563 7.315-4.981-7.037-4.842-7.141-4.703-7.228-4.563-7.315zm-25.709-5.539l4.981 7.036 4.843 7.142 4.702 7.228 4.564 7.315-4.982-7.036-4.842-7.142-4.703-7.228-4.563-7.315zm-4.163 12.488l4.981 7.037 4.843 7.141 4.702 7.228 4.564 7.315-4.982-7.036-4.842-7.142-4.703-7.228-4.563-7.315zm20.657-11.582l4.981 7.036 4.842 7.142 4.703 7.228 4.563 7.315-4.981-7.036-4.842-7.142-4.703-7.228-4.563-7.315z"
            class="D" />
        <path
            d="M507.023 396.491l4.981 7.037 4.842 7.141 4.703 7.229 4.563 7.315-4.981-7.037-4.842-7.141-4.703-7.228-4.563-7.316zm28.948-3.361c-1.951.349-3.902.436-5.852.54-1.951.035-3.919.088-5.888-.122 1.951-.348 3.902-.435 5.853-.539l5.887.121z"
            class="D" />
        <path
            d="M538.828 404.33c-1.951.348-3.902.435-5.853.54-1.95.035-3.918.087-5.887-.122 1.951-.348 3.902-.435 5.853-.54l5.887.122zm-14.37 9.597c-1.951.348-3.901.435-5.852.54-1.951.034-3.919.087-5.887-.122 1.951-.349 3.901-.436 5.852-.54l5.887.122zm-4.041-8.935c-1.951.348-3.902.435-5.853.54-1.95.034-3.919.087-5.887-.122 1.951-.349 3.902-.436 5.853-.54l5.887.122zm45.442-20.707l4.982 7.037 4.842 7.141 4.703 7.228 4.563 7.315-4.981-7.036-4.843-7.142-4.702-7.228-4.564-7.315zm-25.726-5.521l4.982 7.037 4.842 7.141 4.703 7.229 4.563 7.315-4.982-7.037-4.842-7.141-4.702-7.228-4.564-7.316zm-4.162 12.488l4.981 7.037 4.842 7.141 4.703 7.228 4.563 7.316-4.981-7.037-4.842-7.141-4.703-7.228-4.563-7.316zm20.675-11.6l4.981 7.037 4.842 7.141 4.703 7.228 4.563 7.316-4.981-7.037-4.842-7.141-4.703-7.229-4.563-7.315zm-13.256 12.61l4.982 7.037 4.842 7.141 4.702 7.228 4.564 7.316-4.982-7.037-4.842-7.141-4.702-7.228-4.564-7.316z"
            class="D" />
        <path
            d="M572.356 388.918c-1.951.348-3.902.435-5.853.54-1.95.035-3.919.087-5.887-.122 1.951-.348 3.902-.435 5.853-.54l5.887.122zm2.857 11.183c-1.951.348-3.902.435-5.853.54-1.95.034-3.919.087-5.887-.122 1.951-.349 3.902-.436 5.852-.54l5.888.122zm-14.387 9.613c-1.95.349-3.901.436-5.852.54-1.951.035-3.919.087-5.887-.122 1.951-.348 3.901-.435 5.852-.539l5.887.121zm-4.042-8.935c-1.95.349-3.901.436-5.852.54-1.951.035-3.919.087-5.887-.122 1.951-.348 3.901-.435 5.852-.54l5.887.122z"
            class="D" />
        <path
            d="M687.625 481.318v-.035c0-7.472-6.061-13.551-13.551-13.551-1.898 0-3.692.401-5.347 1.097-2.16-7.768-9.266-13.481-17.731-13.481-3.57 0-6.897 1.028-9.719 2.804-3.518-5.329-8.987-8.778-15.118-8.778-8.151 0-15.118 6.061-17.923 14.596-3.431-3.344-8.116-5.417-13.289-5.417-9.388 0-17.156 6.793-18.724 15.728-1.289-.627-2.7-1.01-4.232-1.01-4.79 0-8.744 3.466-9.545 8.029h125.179v.018z"
            class="O" />
        <path
            d="M641.312 490.27v-.017a8.54 8.54 0 0 0-8.535-8.534c-1.201 0-2.334.243-3.361.696-1.359-4.894-5.835-8.499-11.165-8.499-2.247 0-4.337.644-6.131 1.759-2.212-3.362-5.66-5.522-9.527-5.522-5.138 0-9.527 3.815-11.287 9.197-2.159-2.108-5.103-3.414-8.36-3.414-5.905 0-10.799 4.285-11.792 9.91a5.95 5.95 0 0 0-2.664-.627c-3.014 0-5.504 2.195-6.01 5.069h78.832v-.018z"
            class="R" />
        <path
            d="M391.179 566.96v-.087c0-18.654-15.135-33.79-33.789-33.79a33.63 33.63 0 0 0-13.325 2.734c-5.382-19.385-23.113-33.633-44.223-33.633a45.5 45.5 0 0 0-24.245 6.985c-8.796-13.307-22.399-21.877-37.726-21.877-20.361 0-37.709 15.119-44.693 36.438-8.552-8.361-20.24-13.516-33.146-13.516-23.392 0-42.795 16.947-46.696 39.224-3.205-1.55-6.741-2.508-10.538-2.508-11.948 0-21.824 8.674-23.827 20.047h312.208v-.017zm1053.881 0v-.122c0-27.449-22.26-49.709-49.71-49.709-6.97 0-13.59 1.446-19.6 4.023-7.9-28.529-33.99-49.483-65.03-49.483-13.12 0-25.31 3.797-35.67 10.259-12.94-19.577-32.96-32.187-55.5-32.187-29.94 0-55.47 22.242-65.75 53.593-12.59-12.296-29.76-19.89-48.75-19.89-34.41 0-62.94 24.924-68.69 57.704-4.71-2.282-9.93-3.675-15.5-3.675-17.58 0-32.122 12.749-35.048 29.487h459.248 0zm-530.903 17.278v-.087c0-19.786-16.041-35.81-35.81-35.81-5.016 0-9.789 1.045-14.126 2.909-5.695-20.553-24.506-35.654-46.87-35.654-9.44 0-18.236 2.735-25.708 7.402-9.319-14.108-23.74-23.2-39.973-23.2-21.581 0-39.973 16.024-47.376 38.615-9.074-8.848-21.458-14.335-35.131-14.335-24.802 0-45.355 17.958-49.5 41.576-3.397-1.655-7.142-2.648-11.165-2.648-12.662 0-23.13 9.179-25.255 21.25h330.914v-.018z"
            class="O" />
        <path
            d="M915.916 581.835v-.052c0-13.133-10.642-23.775-23.775-23.775a23.67 23.67 0 0 0-9.37 1.933c-3.78-13.638-16.268-23.67-31.108-23.67a32.09 32.09 0 0 0-17.069 4.912c-6.183-9.371-15.763-15.397-26.544-15.397-14.318 0-26.545 10.642-31.456 25.638-6.027-5.887-14.248-9.51-23.322-9.51-16.46 0-30.115 11.931-32.867 27.607-2.247-1.097-4.738-1.759-7.42-1.759-8.413 0-15.362 6.096-16.773 14.108h219.704v-.035z"
            fill="#488c6f" />
        <path
            d="M1055.29 577.028v-.052c0-13.133-10.64-23.775-23.77-23.775-3.33 0-6.5.697-9.38 1.934-3.78-13.638-16.26-23.671-31.103-23.671-6.27 0-12.105 1.812-17.069 4.912-6.183-9.371-15.763-15.397-26.544-15.397-14.318 0-26.545 10.642-31.456 25.639-6.027-5.888-14.248-9.51-23.322-9.51-16.46 0-30.115 11.931-32.867 27.606-2.247-1.097-4.738-1.759-7.42-1.759-8.413 0-15.362 6.096-16.773 14.108h219.704v-.035zm-554.258 0v-.052c0-13.133-10.642-23.775-23.775-23.775a23.66 23.66 0 0 0-9.371 1.934c-3.779-13.638-16.268-23.671-31.107-23.671-6.271 0-12.106 1.812-17.069 4.912-6.184-9.371-15.763-15.397-26.545-15.397-14.317 0-26.544 10.642-31.456 25.639-6.026-5.888-14.247-9.51-23.322-9.51-16.459 0-30.115 11.931-32.866 27.606-2.247-1.097-4.738-1.759-7.42-1.759-8.413 0-15.363 6.096-16.773 14.108h219.704v-.035z"
            class="R" />
    </g>
    <g clip-path="url(#H)">
        <path d="M379.121 300.752h-5.134v197.832h5.134V300.752z" fill="#aaa" />
        <g class="B">
            <path
                d="M382.604 247.839h-12.811v2.154h12.811v-2.154zm-.812 31.667H368.98v2.154h12.812v-2.154zm-46.297 217.681c-.08 0-.163-.007-.247-.021-.801-.135-1.34-.9-1.204-1.707l11.395-67.817 7.899-46.685 2.649-15.432.77-4.357c.356-1.964.371-2.04.769-2.402.602-.548 1.532-.501 2.077.105a1.49 1.49 0 0 1 .309 1.45c-.736 3.24-15.321 89.989-22.968 135.631-.121.722-.743 1.235-1.449 1.235zm81.914 0c-.704 0-1.327-.511-1.448-1.235l-22.968-135.631a1.49 1.49 0 0 1 .309-1.45c.544-.606 1.475-.653 2.076-.105.398.362.412.44.768 2.402l.769 4.357 2.65 15.432 7.899 46.685 11.395 67.817c.134.807-.405 1.57-1.205 1.707-.082.014-.164.021-.245.021z" />
            <path d="M426.728 494.899H325.707v7.374h101.021v-7.374z" />
        </g>
        <path
            d="M394.032 293.068s-3.642.542-6.323-1.262-5.854-5.416-6.696-10.052-.953-7.341.784-11.445c2.418-5.711 6.248-5.645 6.248-5.645l5.987 28.404z"
            class="G" />
        <path
            d="M383.864 280.564c1.804 7.818 6.604 13.376 10.716 12.414s5.986-8.083 4.182-15.903-6.604-13.376-10.717-12.413-5.985 8.084-4.181 15.902z"
            class="H" />
        <path
            d="M385.236 280.376c1.662 7.195 5.828 12.368 9.305 11.554s4.951-7.308 3.291-14.503-5.827-12.368-9.305-11.554-4.95 7.309-3.291 14.503z"
            class="I" />
        <path
            d="M385.352 280.283c-1.139-4.935-.803-9.541.642-12.209 2.415 1.8 4.67 5.726 5.787 10.57 1.139 4.935.803 9.54-.642 12.208-2.416-1.8-4.67-5.723-5.787-10.569z"
            class="J" />
        <g class="C B">
            <path
                d="M392.126 268.888c-.173.709-.734 1.242-1.215 1.79-1.149 1.31-1.953 2.924-2.308 4.634-.109.525-.267 1.164-.781 1.303s-.983-.359-1.156-.863c-.262-.765-.136-1.602.005-2.399.358-2.035.86-4.184 2.335-5.621 1.054-1.027 3.612-.849 3.12 1.156z"
                class="C" />
        </g>
        <path
            d="M391.201 258.913s-2.774.411-4.817-.961-4.46-4.125-5.1-7.656-.726-5.592.596-8.717c1.842-4.349 4.76-4.299 4.76-4.299l4.561 21.633z"
            class="G" />
        <path
            d="M383.456 249.387c1.374 5.955 5.029 10.188 8.162 9.454s4.56-6.157 3.186-12.112-5.03-10.189-8.163-9.455-4.56 6.157-3.185 12.113z"
            class="H" />
        <path
            d="M391.586 258.046c2.649-.62 3.772-5.566 2.507-11.047s-4.438-9.421-7.088-8.8-3.772 5.566-2.507 11.047 4.438 9.421 7.088 8.8z"
            class="I" />
        <path
            d="M384.589 249.174c-.869-3.76-.611-7.267.489-9.299 1.839 1.372 3.556 4.36 4.408 8.05.869 3.759.612 7.267-.489 9.299-1.839-1.371-3.556-4.36-4.408-8.05z"
            class="J" />
        <g class="C B">
            <path
                d="M389.75 240.494c-.133.539-.56.945-.926 1.362-.875.996-1.488 2.226-1.757 3.529-.082.399-.203.887-.595.992s-.749-.275-.88-.657c-.198-.582-.104-1.222.003-1.827.272-1.55.655-3.188 1.779-4.281.802-.781 2.75-.646 2.376.882z"
                class="C" />
        </g>
        <path
            d="M357.944 294.512s3.642.542 6.323-1.262 5.855-5.416 6.696-10.052.953-7.341-.784-11.446c-2.418-5.71-6.248-5.644-6.248-5.644l-5.987 28.404z"
            class="G" />
        <path
            d="M368.113 282.009c-1.805 7.818-6.603 13.376-10.717 12.413s-5.985-8.082-4.181-15.902 6.602-13.376 10.716-12.414 5.986 8.083 4.182 15.903z"
            class="H" />
        <path
            d="M366.743 281.824c-1.662 7.195-5.828 12.368-9.306 11.554s-4.95-7.308-3.291-14.503 5.828-12.368 9.306-11.554 4.95 7.307 3.291 14.503z"
            class="I" />
        <path
            d="M366.626 281.726c1.139-4.935.803-9.54-.642-12.208-2.416 1.8-4.67 5.725-5.787 10.569-1.139 4.935-.803 9.541.641 12.209 2.414-1.799 4.669-5.724 5.788-10.57z"
            class="J" />
        <g class="C B">
            <path
                d="M359.851 270.333c.175.709.735 1.242 1.215 1.79 1.149 1.309 1.954 2.923 2.308 4.634.109.525.267 1.164.781 1.303s.983-.359 1.156-.863c.261-.765.136-1.602-.005-2.399-.358-2.036-.86-4.184-2.335-5.621-1.053-1.027-3.61-.851-3.12 1.156z"
                class="C" />
        </g>
        <path
            d="M360.777 260.354s2.774.411 4.817-.961 4.46-4.125 5.1-7.656.726-5.592-.596-8.717c-1.842-4.35-4.76-4.299-4.76-4.299l-4.561 21.633z"
            class="G" />
        <path
            d="M368.519 250.831c1.375-5.956-.051-11.379-3.184-12.113s-6.787 3.501-8.161 9.456.05 11.379 3.183 12.113 6.788-3.501 8.162-9.456z"
            class="H" />
        <path
            d="M367.477 250.688c-1.265 5.48-4.438 9.42-7.088 8.799s-3.771-5.566-2.506-11.046 4.438-9.421 7.087-8.8 3.772 5.566 2.507 11.047z"
            class="I" />
        <path
            d="M367.39 250.617c.868-3.76.611-7.267-.489-9.299-1.84 1.372-3.556 4.36-4.408 8.05-.869 3.759-.612 7.267.489 9.299 1.839-1.371 3.556-4.36 4.408-8.05z"
            class="J" />
        <g class="C B">
            <path
                d="M362.23 241.937c.133.54.559.946.926 1.362.875.997 1.488 2.227 1.757 3.529.082.4.203.887.595.992s.749-.274.88-.657c.198-.582.104-1.221-.004-1.827-.272-1.55-.655-3.187-1.779-4.28-.803-.78-2.75-.647-2.375.881z"
                class="C" />
        </g>
        <g class="B">
            <path
                d="M411.191 460.129h-69.476c-.811 0-1.47-.664-1.47-1.481s.659-1.48 1.47-1.48h69.477c.812 0 1.47.663 1.47 1.48s-.658 1.481-1.471 1.481zm-11.237-66.633h-47.005c-.811 0-1.47-.663-1.47-1.48s.659-1.481 1.47-1.481h47.003c.812 0 1.47.663 1.47 1.481s-.656 1.48-1.468 1.48z" />
            <path
                d="M404.537 426.813h-57.534c-.812 0-1.47-.663-1.47-1.48s.658-1.481 1.47-1.481h57.534c.812 0 1.47.664 1.47 1.481s-.658 1.48-1.47 1.48zm-18.18 28.561h-18.354v6.549h18.354v-6.549z" />
            <path d="M386.357 422.057h-18.354v6.55h18.354v-6.55zm0-33.316h-18.354v6.55h18.354v-6.55z" />
            <path
                d="M338.276 480.026c-.215 0-.391-.075-.591-.219-.338-.242-.511-.665-.442-1.077a1.09 1.09 0 0 1 .917-.899c2.075-.846 21.922-11.6 35.946-19.269l-29.55-19.42a1.09 1.09 0 0 1 .19-1.927l30.383-12.232-23.593-20.652c-.237-.206-.373-.508-.373-.824v-.523c0-.775.596-1.069 1.678-1.602a96.57 96.57 0 0 1 2.858-1.328l8.588-3.755 11.153-4.737-19.019-24.138c-.371-.473-.294-1.159.175-1.533a1.08 1.08 0 0 1 1.522.176l19.911 25.272c.211.267.285.621.199.951a1.09 1.09 0 0 1-.633.734l-23.86 10.343 24.154 21.142c.286.249.42.631.358 1.005s-.316.69-.665.831l-30.096 12.117 29.323 19.273a1.09 1.09 0 0 1 .49.957c-.015.384-.23.731-.564.916l-18.815 10.241-13.022 6.986-4.362 2.269c-1.244.626-1.83.922-2.26.922z" />
            <path
                d="M414.892 480.025c-.43 0-1.018-.296-2.261-.923l-4.363-2.269-13.021-6.986-18.815-10.241c-.336-.183-.549-.532-.565-.916s.172-.747.491-.957l29.323-19.273-30.096-12.117c-.351-.141-.603-.457-.665-.831a1.09 1.09 0 0 1 .358-1.005l24.154-21.142c-3.345-1.652-15.865-6.995-23.86-10.343-.314-.132-.548-.403-.634-.734a1.1 1.1 0 0 1 .2-.951l19.911-25.272c.371-.472 1.053-.552 1.522-.176s.548 1.061.175 1.533l-19.021 24.142 11.154 4.737 8.587 3.754 2.858 1.328c1.082.533 1.678.828 1.678 1.603v.522c0 .317-.136.616-.373.824l-23.593 20.652 30.384 12.233c.376.15.636.5.675.905a1.1 1.1 0 0 1-.486 1.022l-29.548 19.419 35.944 19.27c.455.064.837.418.917.898a1.11 1.11 0 0 1-.442 1.078c-.194.144-.371.216-.588.216zm-16.069-122.031H352.95v5.755h45.873v-5.755zm-7.13-62.996h-30.704v5.754h30.704v-5.754z" />
            <path d="M368 360.872h-2.928l.309-60.12h2.928l-.309 60.12zm18.544 0h-2.928l.309-60.12h2.928l-.309 60.12z" />
            <path
                d="M383.616 358.429a1.08 1.08 0 0 1-.676-.238l-15.616-12.546c-.283-.227-.434-.579-.405-.941a1.09 1.09 0 0 1 .547-.863l14.223-8.073-14.06-11.37c-.26-.212-.41-.531-.405-.866a1.1 1.1 0 0 1 .431-.855l14.37-10.928-15.761-10.073c-.506-.324-.656-.997-.335-1.506a1.08 1.08 0 0 1 1.495-.337l17.082 10.918a1.09 1.09 0 0 1 .502.876c.015.357-.146.699-.43.916l-14.506 11.033 14.222 11.501c.281.227.43.579.402.939a1.09 1.09 0 0 1-.548.862l-14.217 8.072 14.362 11.537c.467.375.544 1.062.171 1.533-.215.269-.531.409-.848.409zm-5.419-120.47h-4.21v59.916h4.21v-59.916z" />
            <path d="M379.362 235.9h-6.669v2.058h6.669V235.9z" />
            <path d="M376.496 211.762h-.955v25.167h.955v-25.167z" />
            <path
                d="M378.109 211.762c0 1.162-.935 2.105-2.089 2.105s-2.09-.943-2.09-2.105.935-2.105 2.09-2.105 2.089.943 2.089 2.105z" />
        </g>
    </g>
    <g clip-path="url(#I)">
        <path d="M675.124 304.815h-2.503v95.995h2.503v-95.995z" fill="#aaa" />
        <g class="B">
            <path
                d="M676.823 279.139h-6.247v1.046h6.247v-1.046zm-.396 15.367h-6.247v1.045h6.247v-1.045zm-22.576 105.626a.83.83 0 0 1-.12-.01c-.391-.066-.654-.437-.587-.829l5.556-32.907 3.852-22.653 1.292-7.488.375-2.114c.173-.953.181-.99.375-1.166.293-.266.747-.243 1.013.051a.72.72 0 0 1 .15.704c-.359 1.572-7.471 43.666-11.2 65.812a.72.72 0 0 1-.706.6zm39.943 0a.72.72 0 0 1-.706-.6l-11.2-65.812a.72.72 0 0 1 .151-.704c.265-.294.719-.317 1.013-.051.194.176.2.214.374 1.166l.375 2.114 1.292 7.488 3.852 22.653 5.556 32.907a.72.72 0 0 1-.587.829.81.81 0 0 1-.12.01z" />
            <path d="M698.339 399.021h-49.261v3.578h49.261v-3.578z" />
        </g>
        <path
            d="M682.395 301.088s-1.776.263-3.083-.613-2.855-2.627-3.265-4.877-.465-3.562.382-5.554c1.179-2.771 3.047-2.739 3.047-2.739l2.919 13.783z"
            class="G" />
        <path
            d="M677.437 295.019c.879 3.794 3.22 6.491 5.225 6.023s2.919-3.921 2.039-7.716-3.22-6.491-5.225-6.023-2.919 3.922-2.039 7.716z"
            class="H" />
        <path
            d="M678.107 294.928c.81 3.491 2.841 6.001 4.537 5.606s2.414-3.546 1.605-7.037-2.842-6.002-4.538-5.607-2.414 3.547-1.604 7.038z"
            class="I" />
        <path
            d="M678.162 294.882c-.555-2.394-.391-4.629.313-5.924 1.178.874 2.278 2.778 2.822 5.129.556 2.395.392 4.629-.313 5.924-1.178-.873-2.277-2.777-2.822-5.129z"
            class="J" />
        <g class="C B">
            <path
                d="M681.466 289.354c-.085.344-.358.602-.593.868a4.95 4.95 0 0 0-1.125 2.249c-.053.254-.13.565-.381.632s-.479-.174-.564-.419c-.127-.371-.066-.777.003-1.164.174-.988.419-2.03 1.138-2.727.514-.499 1.762-.412 1.522.561z"
                class="C" />
        </g>
        <path
            d="M681.015 284.516s-1.352.199-2.349-.467-2.174-2.001-2.487-3.714-.353-2.714.291-4.23c.898-2.111 2.321-2.086 2.321-2.086l2.224 10.497z"
            class="G" />
        <path
            d="M677.239 279.892c.67 2.89 2.452 4.944 3.98 4.588s2.223-2.988 1.553-5.878-2.452-4.944-3.98-4.587-2.223 2.987-1.553 5.877z"
            class="H" />
        <path
            d="M681.203 284.092c1.292-.301 1.839-2.701 1.222-5.36s-2.164-4.572-3.456-4.271-1.839 2.701-1.222 5.361 2.164 4.571 3.456 4.27z"
            class="I" />
        <path
            d="M677.791 279.787c-.424-1.824-.298-3.526.238-4.512.897.666 1.734 2.116 2.15 3.907.423 1.824.298 3.526-.239 4.512-.897-.665-1.734-2.116-2.149-3.907z"
            class="J" />
        <g class="C B">
            <path
                d="M680.307 275.575c-.065.262-.273.459-.451.661a3.76 3.76 0 0 0-.857 1.713c-.04.194-.099.43-.29.481s-.366-.133-.429-.319c-.097-.282-.051-.592.001-.886.133-.752.32-1.547.868-2.077.39-.38 1.341-.314 1.158.427z"
                class="C" />
        </g>
        <path
            d="M664.798 301.788s1.776.263 3.083-.612 2.855-2.628 3.265-4.878.465-3.562-.382-5.554c-1.179-2.77-3.047-2.738-3.047-2.738l-2.919 13.782z"
            class="G" />
        <path
            d="M669.757 295.72c-.88 3.794-3.22 6.491-5.226 6.024s-2.919-3.922-2.039-7.717 3.22-6.49 5.226-6.023 2.919 3.922 2.039 7.716z"
            class="H" />
        <path
            d="M669.089 295.631c-.81 3.491-2.842 6.001-4.537 5.606s-2.414-3.546-1.605-7.037 2.842-6.002 4.537-5.607 2.414 3.546 1.605 7.038z"
            class="I" />
        <path
            d="M669.032 295.583c.555-2.394.391-4.629-.313-5.924-1.178.874-2.278 2.778-2.822 5.129-.556 2.395-.392 4.629.313 5.924 1.177-.873 2.276-2.777 2.822-5.129z"
            class="J" />
        <g class="C B">
            <path
                d="M665.728 290.055c.086.344.358.602.593.868a4.95 4.95 0 0 1 1.125 2.249c.053.254.13.565.381.632s.479-.174.564-.419c.127-.371.066-.777-.003-1.164-.174-.987-.419-2.03-1.138-2.727-.514-.498-1.761-.413-1.522.561z"
                class="C" />
        </g>
        <path
            d="M666.18 285.213s1.352.199 2.348-.467 2.175-2.001 2.487-3.714.354-2.714-.291-4.23c-.897-2.111-2.32-2.086-2.32-2.086l-2.224 10.497z"
            class="G" />
        <path
            d="M669.955 280.591c.67-2.89-.025-5.521-1.553-5.877s-3.31 1.699-3.98 4.589.025 5.521 1.553 5.877 3.309-1.699 3.98-4.589z"
            class="H" />
        <path
            d="M669.447 280.522c-.617 2.659-2.165 4.571-3.457 4.27s-1.839-2.701-1.222-5.36 2.164-4.571 3.456-4.27 1.839 2.701 1.223 5.36z"
            class="I" />
        <path
            d="M669.404 280.488c.423-1.825.298-3.526-.239-4.512-.897.665-1.734 2.115-2.149 3.906-.424 1.824-.298 3.526.238 4.512.897-.665 1.734-2.116 2.15-3.906z"
            class="J" />
        <g class="C B">
            <path
                d="M666.888 276.276c.065.262.273.459.451.661a3.76 3.76 0 0 1 .857 1.713c.04.193.099.43.29.481s.365-.133.429-.319c.097-.282.051-.592-.001-.886-.133-.752-.32-1.547-.868-2.077-.391-.379-1.341-.314-1.158.427z"
                class="C" />
        </g>
        <g class="B">
            <path
                d="M690.762 382.15h-33.878a.72.72 0 0 1-.717-.719.72.72 0 0 1 .717-.718h33.879a.72.72 0 0 1 .717.718.72.72 0 0 1-.718.719zm-5.479-32.333h-22.921a.72.72 0 0 1-.716-.718.72.72 0 0 1 .716-.719h22.92a.72.72 0 0 1 .717.719c.001.397-.32.718-.716.718z" />
            <path
                d="M687.518 365.984h-28.055a.72.72 0 0 1-.717-.719.72.72 0 0 1 .717-.718h28.055a.72.72 0 0 1 .717.718.72.72 0 0 1-.717.719zm-8.865 13.859h-8.95v3.178h8.95v-3.178z" />
            <path d="M678.653 363.676h-8.95v3.178h8.95v-3.178zm0-16.166h-8.95v3.178h8.95v-3.178z" />
            <path
                d="M655.207 391.804a.47.47 0 0 1-.288-.106c-.165-.117-.25-.322-.216-.523a.53.53 0 0 1 .447-.436c1.012-.41 10.69-5.628 17.528-9.35l-14.409-9.423a.53.53 0 0 1 .093-.935l14.815-5.936-11.504-10.02a.53.53 0 0 1-.182-.4v-.254c0-.376.291-.519.818-.777.32-.157.79-.375 1.394-.645l4.187-1.822 5.439-2.298-9.274-11.713a.53.53 0 0 1 .085-.744.53.53 0 0 1 .742.085l9.709 12.263c.103.13.139.302.098.462a.53.53 0 0 1-.309.356l-11.635 5.019 11.778 10.259a.53.53 0 0 1-.15.89l-14.675 5.88 14.298 9.352a.53.53 0 0 1 .24.464c-.008.187-.113.355-.276.445-.046.024-4.628 2.521-9.174 4.969l-6.35 3.39-2.127 1.101c-.607.303-.892.447-1.102.447z" />
            <path
                d="M692.567 391.804c-.209 0-.496-.144-1.102-.448l-2.128-1.101-6.349-3.39-9.175-4.969c-.164-.089-.268-.258-.275-.444a.53.53 0 0 1 .239-.465l14.299-9.352-14.676-5.88c-.171-.068-.294-.221-.324-.403a.53.53 0 0 1 .174-.487l11.778-10.259c-1.631-.801-7.736-3.394-11.634-5.019a.53.53 0 0 1-.212-.818l9.709-12.262c.181-.229.514-.268.742-.086a.53.53 0 0 1 .086.744l-9.275 11.714 5.438 2.299L684.07 353l1.393.644c.528.259.819.402.819.778v.254a.53.53 0 0 1-.182.399l-11.505 10.021 14.816 5.936a.53.53 0 0 1 .093.935l-14.409 9.423 17.527 9.35a.53.53 0 0 1 .447.436c.034.2-.05.405-.215.523a.46.46 0 0 1-.287.105zm-7.835-59.213h-22.369v2.792h22.369v-2.792zm-3.477-30.568h-14.972v2.792h14.972v-2.792z" />
            <path
                d="M669.701 333.987h-1.428l.151-29.172h1.428l-.151 29.172zm9.043 0h-1.428l.151-29.172h1.427l-.15 29.172z" />
            <path
                d="M677.316 332.801c-.115 0-.232-.037-.329-.115l-7.615-6.088a.53.53 0 0 1 .069-.875l6.935-3.918-6.855-5.517a.53.53 0 0 1-.198-.42c.003-.163.081-.316.21-.414l7.007-5.303-7.685-4.888a.53.53 0 0 1-.163-.731c.156-.247.482-.32.729-.163l8.329 5.297a.53.53 0 0 1 .245.426c.008.173-.071.339-.21.444l-7.073 5.353 6.935 5.581a.53.53 0 0 1-.071.874l-6.933 3.917 7.003 5.598a.53.53 0 0 1-.33.942zm-2.642-58.455h-2.053v29.073h2.053v-29.073z" />
            <path d="M675.242 273.347h-3.252v.998h3.252v-.998z" />
            <path d="M673.844 261.634h-.466v12.212h.466v-12.212z" />
            <path
                d="M674.631 261.634a1.02 1.02 0 0 1-1.019 1.021 1.02 1.02 0 1 1 0-2.042 1.02 1.02 0 0 1 1.019 1.021z" />
        </g>
    </g>
    <g clip-path="url(#J)">
        <path d="M1103.48 246.014h-1.62v62.691h1.62v-62.691z" fill="#aaa" />
        <g class="B">
            <path
                d="M1104.58 229.247h-4.04v.682h4.04v-.682zm-.26 10.035h-4.04v.682h4.04v-.682zm-14.6 68.98a.45.45 0 0 1-.08-.006c-.26-.043-.43-.285-.38-.541.02-.107 1.81-10.863 3.59-21.491l2.5-14.793.83-4.891.24-1.38c.12-.623.12-.647.25-.762.19-.173.48-.158.65.034a.46.46 0 0 1 .1.459c-.23 1.027-4.83 28.517-7.25 42.98-.04.229-.23.391-.45.391zm25.84 0c-.22 0-.42-.162-.46-.391l-7.24-42.98a.46.46 0 0 1 .1-.459c.17-.192.46-.207.65-.034.13.115.13.14.24.762l.25 1.38.83 4.891 2.49 14.793 3.6 21.491c.04.256-.13.497-.38.541a.54.54 0 0 1-.08.006z" />
            <path d="M1118.5 307.537h-31.87v2.337h31.87v-2.337z" />
        </g>
        <path
            d="M1108.19 243.58s-1.15.171-2-.4-1.85-1.716-2.11-3.186c-.27-1.469-.3-2.326.24-3.627.77-1.809 1.98-1.788 1.98-1.788l1.89 9.001z"
            class="G" />
        <path
            d="M1104.98 239.617c.57 2.478 2.08 4.239 3.38 3.934s1.89-2.561 1.32-5.039-2.09-4.239-3.38-3.934c-1.3.305-1.89 2.562-1.32 5.039z"
            class="H" />
        <path
            d="M1105.41 239.557c.52 2.281 1.84 3.92 2.94 3.662 1.09-.258 1.56-2.316 1.03-4.596-.52-2.28-1.83-3.919-2.93-3.661s-1.56 2.316-1.04 4.595z"
            class="I" />
        <path
            d="M1105.45 239.528c-.36-1.564-.26-3.023.2-3.869.76.571 1.47 1.814 1.83 3.349.35 1.564.25 3.024-.21 3.869-.76-.57-1.47-1.813-1.82-3.349z"
            class="J" />
        <g class="C B">
            <path
                d="M1107.58 235.917c-.05.225-.23.394-.38.567a3.25 3.25 0 0 0-.73 1.469c-.03.166-.08.369-.24.413-.17.043-.31-.114-.37-.274-.08-.242-.04-.508 0-.76.12-.645.27-1.326.74-1.781.33-.326 1.14-.269.98.366z"
                class="C" />
        </g>
        <path
            d="M1107.29 232.76s-.87.13-1.52-.305c-.64-.435-1.41-1.307-1.61-2.426s-.23-1.772.19-2.762c.58-1.378 1.5-1.362 1.5-1.362l1.44 6.855z"
            class="G" />
        <path
            d="M1104.85 229.738c.43 1.888 1.58 3.229 2.57 2.996s1.44-1.951 1.01-3.838c-.44-1.887-1.59-3.229-2.58-2.996s-1.44 1.951-1 3.838z"
            class="H" />
        <path
            d="M1107.41 232.482c.84-.197 1.19-1.764.79-3.501-.39-1.737-1.4-2.985-2.23-2.789-.84.197-1.19 1.764-.79 3.501s1.4 2.985 2.23 2.789z"
            class="I" />
        <path
            d="M1105.21 229.67c-.28-1.191-.2-2.302.15-2.946.58.434 1.12 1.381 1.39 2.551.27 1.191.19 2.302-.15 2.946-.58-.434-1.13-1.381-1.39-2.551z"
            class="J" />
        <g class="C B">
            <path
                d="M1106.83 226.919c-.04.171-.17.3-.29.432-.27.316-.47.705-.55 1.118-.03.127-.07.281-.19.314s-.24-.086-.28-.208c-.06-.184-.03-.387 0-.579.09-.491.21-1.01.56-1.356.26-.248.87-.205.75.279z"
                class="C" />
        </g>
        <path
            d="M1096.8 244.038s1.15.172 1.99-.4c.85-.572 1.85-1.716 2.12-3.185.26-1.469.3-2.327-.25-3.627-.76-1.81-1.97-1.789-1.97-1.789l-1.89 9.001z"
            class="G" />
        <path
            d="M1100.01 240.075c-.57 2.478-2.09 4.239-3.38 3.934-1.3-.305-1.89-2.561-1.32-5.039s2.08-4.239 3.38-3.934 1.89 2.561 1.32 5.039z"
            class="H" />
        <path
            d="M1099.58 240.016c-.53 2.281-1.84 3.92-2.94 3.662s-1.56-2.316-1.04-4.596c.53-2.28 1.84-3.919 2.94-3.661 1.09.257 1.56 2.315 1.04 4.595z"
            class="I" />
        <path
            d="M1099.54 239.986c.36-1.564.25-3.023-.2-3.869-.77.571-1.48 1.815-1.83 3.349-.36 1.564-.25 3.024.2 3.869.76-.57 1.47-1.813 1.83-3.349z"
            class="J" />
        <g class="C B">
            <path
                d="M1097.4 236.375c.06.225.23.394.38.567.37.415.62.927.73 1.469.04.166.09.369.25.413s.31-.114.36-.274c.09-.242.05-.507 0-.76-.11-.645-.27-1.326-.74-1.781-.33-.325-1.13-.27-.98.366z"
                class="C" />
        </g>
        <path
            d="M1097.69 233.213s.88.13 1.52-.304c.65-.436 1.41-1.308 1.61-2.427s.23-1.771-.19-2.762c-.58-1.378-1.5-1.362-1.5-1.362l-1.44 6.855z"
            class="G" />
        <path
            d="M1100.14 230.195c.43-1.887-.02-3.606-1.01-3.838s-2.14 1.109-2.57 2.996c-.44 1.888.01 3.606 1 3.839s2.14-1.11 2.58-2.997z"
            class="H" />
        <path
            d="M1099.81 230.15c-.4 1.737-1.4 2.985-2.24 2.789-.83-.197-1.19-1.764-.79-3.501s1.4-2.985 2.24-2.788c.83.196 1.19 1.763.79 3.5z"
            class="I" />
        <path
            d="M1099.78 230.127c.27-1.191.19-2.302-.15-2.946-.59.434-1.13 1.381-1.4 2.551-.27 1.191-.19 2.302.16 2.946.58-.434 1.12-1.381 1.39-2.551z"
            class="J" />
        <g class="C B">
            <path
                d="M1098.15 227.377c.04.171.18.3.29.432.28.315.47.705.56 1.118.02.127.06.281.19.314.12.033.23-.087.27-.208.07-.184.04-.387 0-.579-.08-.491-.2-1.01-.56-1.356-.25-.247-.87-.205-.75.279z"
                class="C" />
        </g>
        <g class="B">
            <path
                d="M1113.6 296.519h-21.92a.47.47 0 0 1-.47-.469.47.47 0 0 1 .47-.469h21.92a.46.46 0 0 1 .46.469.46.46 0 0 1-.46.469zm-3.55-21.115h-14.83c-.25 0-.46-.21-.46-.469s.21-.469.46-.469h14.83a.47.47 0 0 1 .47.469.47.47 0 0 1-.47.469z" />
            <path
                d="M1111.5 285.961h-18.15a.47.47 0 0 1-.47-.469.47.47 0 0 1 .47-.469h18.15a.46.46 0 0 1 .46.469.46.46 0 0 1-.46.469zm-5.74 9.051h-5.79v2.076h5.79v-2.076z" />
            <path d="M1105.76 284.454h-5.79v2.076h5.79v-2.076zm0-10.557h-5.79v2.076h5.79v-2.076z" />
            <path
                d="M1090.59 302.824c-.06 0-.12-.024-.18-.069a.35.35 0 0 1-.14-.342c.02-.152.14-.264.29-.285.65-.268 6.91-3.675 11.34-6.106l-9.33-6.154c-.1-.07-.16-.195-.15-.323a.35.35 0 0 1 .21-.287l9.59-3.877-7.44-6.544c-.08-.065-.12-.161-.12-.261v-.166c0-.245.19-.338.53-.507.21-.103.51-.245.9-.421l2.71-1.19 3.52-1.501-6-7.649c-.12-.15-.09-.368.05-.486.15-.119.37-.094.48.056l6.29 8.008c.06.085.09.197.06.301a.35.35 0 0 1-.2.233l-7.53 3.278 7.62 6.699a.38.38 0 0 1 .12.319c-.03.119-.1.219-.21.263l-9.5 3.84 9.25 6.107c.1.067.16.182.16.304-.01.121-.08.231-.18.29l-5.94 3.245-4.11 2.214-1.37.719c-.4.198-.58.292-.72.292z" />
            <path
                d="M1114.77 302.824c-.14 0-.32-.094-.72-.293l-1.37-.719-4.11-2.213-5.94-3.246a.37.37 0 0 1-.18-.29c0-.121.06-.237.16-.303l9.25-6.107-9.5-3.84c-.11-.045-.19-.145-.21-.263s.03-.24.12-.319l7.62-6.7-7.53-3.277c-.1-.042-.17-.128-.2-.233s0-.216.06-.301l6.29-8.009c.11-.149.33-.174.48-.055.14.118.17.336.05.485l-6 7.651 3.52 1.501 2.71 1.19.9.421c.34.168.53.262.53.507v.166c0 .1-.04.195-.12.261l-7.44 6.544 9.58 3.877c.12.047.21.158.22.286a.35.35 0 0 1-.16.324l-9.32 6.154 11.34 6.106c.15.021.27.133.29.285.02.13-.03.264-.14.342-.06.045-.11.068-.18.068zm-5.07-38.67h-14.48v1.823h14.48v-1.823zm-2.25-19.963h-9.69v1.823h9.69v-1.823z" />
            <path d="M1099.97 265.066h-.92l.1-19.052h.92l-.1 19.052zm5.85 0h-.92l.1-19.052h.92l-.1 19.052z" />
            <path
                d="M1104.9 264.292c-.08 0-.15-.025-.21-.076l-4.93-3.975c-.09-.072-.14-.184-.13-.299a.34.34 0 0 1 .17-.273l4.49-2.558-4.44-3.603c-.08-.067-.12-.169-.12-.275a.35.35 0 0 1 .13-.271l4.54-3.463-4.98-3.192c-.16-.102-.2-.316-.1-.477s.31-.209.47-.107l5.39 3.46c.09.061.15.165.16.278 0 .113-.05.221-.14.29l-4.57 3.496 4.48 3.645c.09.072.14.183.13.297a.34.34 0 0 1-.17.273l-4.49 2.558 4.53 3.656c.15.119.17.337.06.486a.35.35 0 0 1-.27.13zm-1.71-38.175h-1.33v18.986h1.33v-18.986z" />
            <path d="M1103.56 225.464h-2.11v.652h2.11v-.652z" />
            <path d="M1102.65 217.815h-.3v7.975h.3v-7.975z" />
            <path
                d="M1103.16 217.815a.66.66 0 0 1-.66.667c-.36 0-.66-.299-.66-.667s.3-.667.66-.667a.66.66 0 0 1 .66.667z" />
        </g>
    </g>
    <g clip-path="url(#K)">
        <g class="K">
            <path
                d="M780.694 472.096c.007-1.305 1.087-2.359 2.411-2.353s2.393 1.072 2.387 2.377c0 .09-.006.18-.019.267l-.009 1.524 2.736 2.231-7.509-1.138v-2.878h.003v-.03zm-2.678 0c-.006-1.305-1.087-2.359-2.411-2.353s-2.392 1.072-2.386 2.377c0 .09.006.18.018.267l.009 1.524-2.587 2.231 7.357-1.138v-2.878h-.003c.003-.009.003-.018.003-.03z" />
        </g>
        <path
            d="M772.885 459.663c0-.012.003-.027.003-.039v-.02c0-.102.009-.201.021-.3l.049-12.84a2.27 2.27 0 0 1-.018-.284v-3.396h3.209 3.176.06 3.176 3.21v3.39a2.32 2.32 0 0 1-.019.287l.049 12.84c.012.099.021.198.021.3v.021c0 .011.003.026.003.038a2.06 2.06 0 0 1-.009.273l-.237 13.669c-2.72.411-4.927-.203-4.927-.203l-.243-13.748v-.024l-.195-9.561h-.832-.06-.832l-.195 9.561v.024l-.242 13.748s-2.208.614-4.928.203l-.237-13.669-.003-.27z"
            class="V" />
        <path
            d="M778.019 422.79c-.027.291-.334.521-.622.473s-.501-.371-.425-.652c-.055.302-.538.155-.726-.087-.732-.937-.713-2.231-.637-3.411.027-.401.06-.82.267-1.168s.64-.598 1.026-.47c-.288-.461-.17-1.084.146-1.527s.789-.745 1.251-1.039l2.028-1.285c.13-.083.27-.17.428-.182.291-.024.549.218.637.494s.049.572.007.856c.324-.311.731-.649 1.178-.557.476.099.704.635.81 1.102a7.85 7.85 0 0 1 .192 1.827c.227-.144.549-.054.725.147s.228.482.216.748c-.049 1.111-1.121 1.988-2.238 2.126-.862.105-1.834-.114-2.532.395-.82.593-.868 1.935-1.776 2.393"
            class="P" />
        <path
            d="M773.686 431.091c.079-.997-.671-1.871-1.676-1.946l-.127-.003-.003-.006c-.277-.021-.559.054-.844.206-.085.045-.17.096-.246.153-2.156 1.482-4.33 7.136-4.378 9.376 0 .003-.034.161-.04.242-.067.836.562 1.563 1.4 1.626.789.06 1.484-.488 1.618-1.246 1.309-4.006 3.871-7.366 3.871-7.366l-.003-.009a1.77 1.77 0 0 0 .428-1.027z"
            class="E" />
        <path d="M778.012 417.4h-.002v.006z" fill="#ffba9a" />
        <path
            d="M783.235 419.02l-.015-.158c-.219.092-.498.131-.793.167-1.163.141-2.316-.5-3.655-.155l-.182 1.766c-.009.09-.058.213-.146.195-.049-.009-.079-.06-.1-.105l-.14-.278c.097.323.188.931-.052.988-.212.051-.513-.599-.558-1.009-.055-.024-.113-.045-.173-.057-.526-.102-1.036.233-1.139.751s.237 1.021.765 1.123c.143.027.286.021.419-.012l-.325 2.83c-.024.093-.042.189-.054.284-.137 1.201.737 2.288 1.958 2.423s2.32-.728 2.456-1.931a2.81 2.81 0 0 0 .012-.273l.14-1.21c1.205-.251 1.518-1.41 1.485-2.47-.046-1.063.097-2.869.097-2.869z"
            class="E" />
        <g class="W">
            <path
                d="M781.64 424.359s-.577.132-1.314-.012l1.172 1.276.142-1.264zm.246-2.813c.031.18.277.291.551.246s.469-.231.435-.411-.277-.291-.55-.246-.466.231-.436.411zm-3.077-.585c-.061.175.103.388.365.475s.523.018.581-.156-.104-.388-.365-.475-.521-.018-.581.156z"
                class="U" />
        </g>
        <g class="B">
            <path
                d="M785.579 471.857c-1.251.188-2.529.23-3.789.123l-1.075-.135c-.075-.012-.109.102-.033.114a15.51 15.51 0 0 0 3.868.137l1.06-.125c.079-.009.048-.126-.031-.114zm.178 2.273c-.098.057-.184.132-.282.19-.027.015-.039.054-.021.081s.055.039.083.021c.097-.057.183-.133.281-.19.027-.015.039-.054.021-.081s-.055-.039-.082-.021zm.344.296l-.303.169c-.027.015-.04.054-.021.081s.055.039.082.021l.303-.168c.027-.016.04-.055.021-.082s-.055-.039-.082-.021zm-.513-28.603c-1.09-.144-2.031-1.117-2.25-2.159-.015-.075-.133-.042-.115.033.228 1.078 1.208 2.093 2.335 2.243.076.009.109-.105.03-.117zm-1.193.599c-.999-.569-1.816-1.563-2.031-2.695-.015-.075-.131-.045-.116.033.222 1.162 1.063 2.183 2.086 2.767.067.036.128-.066.061-.105zm1.281.432c-.256-.03-.509-.093-.752-.183-.073-.027-.103.09-.033.114a3.33 3.33 0 0 0 .782.189c.033.003.06-.03.06-.06.004-.036-.024-.057-.057-.06zm-12.579 25.12c1.278.191 2.584.236 3.874.123l1.054-.135c.076-.012.045-.129-.034-.114-1.247.207-2.523.243-3.783.138l-1.08-.126c-.076-.015-.107.102-.031.114zm-.179 2.302l.365.189c.027.015.066.006.082-.021a.06.06 0 0 0-.022-.081c-.118-.069-.246-.12-.364-.189-.027-.015-.067-.006-.082.021s-.009.063.021.081z" />
            <path
                d="M772.639 474.486l.364.188c.028.015.067.006.082-.021s.007-.065-.021-.08c-.118-.069-.246-.12-.364-.189-.027-.015-.067-.006-.082.021s-.009.063.021.081zm.512-28.546c1.13-.15 2.108-1.165 2.335-2.243.015-.075-.1-.108-.115-.033-.222 1.045-1.16 2.015-2.25 2.159-.076.012-.045.126.03.117zm1.224.587c1.024-.584 1.865-1.605 2.086-2.767.015-.075-.103-.108-.115-.033-.216 1.132-1.032 2.126-2.031 2.695-.067.039-.006.141.06.105zm-1.338.447a3.33 3.33 0 0 0 .782-.189c.031-.012.052-.039.043-.075-.009-.03-.043-.054-.076-.042-.241.09-.493.156-.752.183-.033.003-.061.024-.061.06s.031.066.064.063z" />
        </g>
        <path
            d="M785.157 431.157c-.082-.997.667-1.872 1.669-1.953l.128-.003.003-.006c.276-.021.559.054.844.204.085.045.17.093.246.15 2.159 1.479 4.351 7.126 4.402 9.366 0 .003.034.162.04.243a1.52 1.52 0 0 1-1.397 1.632c-.789.063-1.484-.485-1.621-1.243-1.318-4.003-3.892-7.357-3.892-7.357l.003-.009a1.83 1.83 0 0 1-.425-1.024z"
            class="E" />
        <use xlink:href="#V" class="M" />
        <use xlink:href="#V" fill="url(#B)" class="N" />
        <path
            d="M778.512 445.238a.42.42 0 0 0 .423-.417.42.42 0 0 0-.423-.417.42.42 0 0 0-.423.417.42.42 0 0 0 .423.417z"
            fill="#ffd7a6" />
        <g class="B">
            <path
                d="M779.455 443.871l-.033 3.851-.012 1.075c0 .078.121.078.121 0l.034-3.851.012-1.075c0-.078-.122-.078-.122 0zm2.86-18.452c-.376 1.042-1.469 1.695-2.547 1.818a3.13 3.13 0 0 1-.932-.027c-.079-.015-.116.108-.034.123 1.133.206 2.408-.201 3.161-1.069a2.54 2.54 0 0 0 .477-.809c.024-.081-.098-.114-.125-.036zm-4.575 1.435a2.58 2.58 0 0 1-1.443-1.459c-.027-.075-.151-.042-.124.033a2.72 2.72 0 0 0 1.533 1.545c.076.03.109-.089.034-.119zm-8.836 3.375c.364.452.771.868 1.19 1.272l1.464 1.309.771.608c.064.044.121-.057.061-.102-1.002-.743-1.94-1.587-2.797-2.489l-.604-.682c-.045-.063-.13.024-.085.084zm4.017.721l-.015 2.069c0 .078.122.078.122 0l.015-2.069c0-.078-.122-.078-.122 0z" />
        </g>
        <g class="E">
            <path d="M777.494 435.651c.455-.081.652.006.091.5zm3.917-.015c-.559-.119-.844-.057-.155.527z" />
        </g>
        <path
            d="M778.001 439.658l2.748.033c.252.003.458-.195.461-.444l.07-5.602a.45.45 0 0 0-.449-.455l-2.748-.033a.45.45 0 0 0-.461.443l-.07 5.602a.45.45 0 0 0 .449.456z"
            class="B" />
        <path d="M777.555 438.776l3.658.044.059-4.743-3.658-.044-.059 4.743z" fill="#d2dcfa" />
        <path
            d="M779.027 435.278a.4.4 0 0 1 .408-.391.4.4 0 0 1 .395.403c-.003.219-.185.393-.408.39s-.398-.183-.395-.402z"
            class="B" />
        <g class="K">
            <path
                d="M780.451 433.67c0-.108.092-.199.205-.196s.202.091.199.202-.092.199-.205.196-.202-.09-.199-.202zm-.313-.003c0-.037.031-.067.068-.067s.068.03.068.067-.031.067-.068.067-.068-.03-.068-.067z" />
        </g>
        <g class="E">
            <path
                d="M775.153 436.334c-.003 0-1.287.275-1.29.275v-.003c-2.927.767-6.036 1.12-6.057 1.123-.866.138-1.455.941-1.318 1.794a1.59 1.59 0 0 0 1.819 1.3c.012-.003.021-.006.033-.006 2.162-.27 6.552-1.608 6.552-1.608l-.003-.006 1.284-.273c.726-.278 1.084-1.084.802-1.8s-1.035-.958-1.822-.796z" />
            <path
                d="M777.621 436.115c-.018.018-.039.033-.06.051-.088.075-.058.219.054.258.972.332 4.272 1.503.486.862l1.278.512c.869.384 1.084.83-1.436.123 0 0 3.862 1.437-.215.668 0 0 2.881 1.045-.432.47-.361-.063-1.247-.159-1.351-.147-.74.075-1.402-.458-1.478-1.189-.067-.637.334-1.212.929-1.401l.003-.012s1.403-.563 2.134-.692m6.173.785c.003 0 1.287.272 1.29.272v-.003c2.927.755 6.039 1.102 6.058 1.105a1.57 1.57 0 0 1 1.32 1.791c-.136.853-.95 1.437-1.815 1.302-.013-.003-.022-.006-.034-.006-2.162-.263-6.555-1.59-6.555-1.59l.003-.006-1.822-.446c-.725-.275-.549-.904-.27-1.62s1.036-.958 1.825-.799z" />
            <path
                d="M781.258 436.163c.088.075.058.219-.054.258-.969.335-4.269 1.515-.483.865l-1.275.515c-.869.386-1.084.83 1.436.117 0 0-3.859 1.446.218.665 0 0-2.878 1.054.431.467.362-.063 1.248-.162 1.352-.15.74.072 1.402-.461 1.475-1.192.064-.637-.337-1.212-.932-1.398l-.003-.012s-1.257-.5-2.013-.662" />
        </g>
        <g class="B">
            <path
                d="M789.996 430.333a14.35 14.35 0 0 1-1.181 1.261l-1.442 1.288-.783.613c-.061.045 0 .15.06.102 1.008-.742 1.956-1.587 2.818-2.488l.613-.692c.049-.06-.036-.144-.085-.084zm-4.326.563l-.048 2.198c0 .078.121.078.121 0l.049-2.198c0-.078-.122-.078-.122 0z" />
        </g>
    </g>
    <g clip-path="url(#L)">
        <path
            d="M486.379 346.476a5.27 5.27 0 0 0-.787-.35c.305-.509.41-1.19.119-1.583-.505-.676-1.374-.935-2.118-1.329-3.291-1.731-4.193-6.177-7.136-8.455-1.599-1.237-3.755-1.722-5.725-1.28s-3.721 1.798-4.646 3.601c-1.226.269-2.023 1.506-2.29 2.739s-.12 2.508-.186 3.769c-.081 1.545-.506 3.123-1.513 4.288-.448.518-1.016.964-1.273 1.602a2 2 0 0 0 .496 2.173c.21.187.463.321.73.398a4.13 4.13 0 0 0-.73 1.347c-.086.274-.139.585.014.825.21.331.678.336 1.059.216a6.41 6.41 0 0 0-.024.518c-.004 1.175.396 2.499 1.451 3.012.558.268 1.197.254 1.784.053 1.197.681 2.662.916 4.031.695 1.855-.297 3.535-1.362 4.799-2.753l1.794.437c2.69.834 5.405-1.055 7.504-2.94 1.044-.936 2.38-1.276 2.929-2.566.434-1.017.076-2.077-.549-2.897.406.034.835-.086.945-.456.138-.446-.282-.844-.678-1.064z"
            class="K" />
        <g class="E">
            <path
                d="M480.592 354.72c-.644-1.578.095-3.381 1.655-4.024.067-.029.134-.048.201-.072v-.014c.429-.178.916-.202 1.45-.101a3.11 3.11 0 0 1 .472.12c4.203 1.295 10.61 9.347 11.845 12.954 0 .005.134.245.186.374.539 1.319-.081 2.825-1.383 3.362-1.221.504-2.614-.024-3.225-1.184-4.169-5.823-9.994-9.952-9.994-9.952v-.015c-.52-.33-.95-.824-1.207-1.448zm-12.183-1.923a2.89 2.89 0 0 1 .987 3.947c-.033.058-.072.11-.11.163l.005.01c-.224.374-.577.662-1.035.887-.134.067.052.873-.091.921-3.873 1.381-13.467-1.823-16.391-3.837a3.47 3.47 0 0 1-.348-.173c-1.136-.69-1.503-2.167-.826-3.299.64-1.065 2.152-1.852 3.254-1.324 7.313 2.24 12.837 2.283 12.837 2.283l.005.014a2.87 2.87 0 0 1 1.713.408z" />
            <path
                d="M451.612 342.303l.004.01c1.131 4.618 3.407 8.268 4.146 11.294.324 1.338-1.388.633-2.676 1.094a2.48 2.48 0 0 1-3.168-1.516l-.014-.053c-1.245-3.189-2.672-10.263-2.672-10.263h.015a2.21 2.21 0 0 1 1.903-2.48c1.202-.153 2.099.705 2.462 1.914zm24.625-3.611l-.12-.225c-.257.268-6.072-.331-7.799.983.272.901.925 5.299.61 4.719-.095 0-.191.005-.286.024a1.53 1.53 0 0 0-1.193 1.794c.167.825.964 1.362 1.785 1.194.224-.043.424-.139.596-.269l1.345 4.82a3.47 3.47 0 0 0 4.303 2.389c1.846-.533 2.91-2.47 2.376-4.326l-.682-2.274c1.588-1.098 1.34-2.992.644-4.537-.687-1.544-1.579-4.292-1.579-4.292z" />
        </g>
        <g fill="#fc4e60">
            <path
                d="M477.182 347.516s-.754.542-1.909.773l2.467 1.17-.558-1.943zm-1.265-3.985c.158.249.578.264.94.029s.534-.619.382-.868c-.158-.25-.577-.264-.94-.029s-.539.623-.382.868zm-4.803.997c.019.293.381.509.811.48s.763-.288.744-.58-.382-.509-.811-.48-.764.288-.744.58z"
                class="U" />
        </g>
        <use xlink:href="#W" class="M" />
        <use xlink:href="#W" fill="url(#C)" class="N" />
        <g class="B">
            <path
                d="M479.251 350.102c-.41 1.726-1.994 2.94-3.659 3.323a5.03 5.03 0 0 1-1.474.115c-.129-.009-.129.192 0 .202 1.789.134 3.678-.729 4.709-2.216a4.09 4.09 0 0 0 .615-1.372c.033-.124-.162-.182-.191-.052zm-6.864 3.055c-1.083-.307-2.003-1.075-2.509-2.082-.057-.115-.229-.014-.172.101a4.29 4.29 0 0 0 2.629 2.177c.124.034.176-.158.052-.196zm11.33 4.403c-.405-.643-.949-1.185-1.593-1.583-.11-.067-.21.105-.1.173a4.72 4.72 0 0 1 1.521 1.51c.067.106.239.005.172-.1z" />
            <path
                d="M482.491 350.178c.172 2.024.243 4.076-.043 6.091-.019.124.177.182.191.053.291-2.034.229-4.106.052-6.149-.009-.12-.21-.12-.2.005zm-15.261 9.242c.248-.681.649-1.295 1.169-1.798.091-.091-.048-.23-.143-.144-.544.527-.959 1.175-1.221 1.889-.038.125.152.178.195.053z" />
            <path
                d="M466.381 352.039c.258 2.005.735 3.981 1.441 5.875.043.12.238.067.191-.052a26.5 26.5 0 0 1-1.432-5.823c-.014-.125-.214-.129-.2 0z" />
        </g>
        <path
            d="M476.981 339.205c-1.55.772-4.045.48-5.629-.22.329.292.735.652.506.896-.282.307-2.047-.014-2.658-.321.253.24 1.136.777.931 1.05s-.978.144-1.408-.187c.64 1.175 1.045 2.144 1.36 3.343.3 1.161-.31.883-.544.744-1.507-.902-2.924-2.379-3.129-4.13-.062-.518-.062-1.06.133-1.544.415-1.017 1.555-1.501 2.6-1.827 1.322-.413 2.7-.739 4.074-.59s2.753.839 3.43 2.052"
            class="K" />
        <path
            d="M518.422 389.112l-14.407-10.666c-1.765-1.209-4.169-.748-5.371 1.022s-.745 4.191 1.016 5.4l15.017 10.009c.072.058 1.784.993 1.975.767a3.44 3.44 0 0 0 3.039-1.505 3.48 3.48 0 0 0 .219-3.53c.053-.091-1.364-1.434-1.488-1.497z"
            class="E" />
        <g class="P">
            <path
                d="M510.265 382.983l-6.244-4.542c-1.766-1.208-4.17-.748-5.372 1.022s-.744 4.192 1.016 5.4l6.364 4.297a21.97 21.97 0 0 0 4.236-6.177z" />
            <path
                d="M481.957 383.233c-2.2-.259-3.769-2.259-3.516-4.465s2.247-3.789 4.441-3.535c.086.01 18.929 2.499 19.077 2.518a3.88 3.88 0 0 1 3.392 4.311 3.87 3.87 0 0 1-4.15 3.42v.005l-19.244-2.254z" />
        </g>
        <path
            d="M508.228 381.611c-.873 1.746-1.937 3.396-3.178 4.902l-1.078 1.213c-.09.091.053.235.143.144a24.9 24.9 0 0 0 3.497-4.695l.787-1.458c.058-.12-.114-.221-.171-.106z"
            class="B" />
        <path d="M518.527 389.204l2.419 1.625 3.32-2.004-5.81 8.58-3.831-2.552 3.902-5.649z" class="M" />
        <g class="B">
            <path
                d="M521.982 390.264l-.096.576c-.009.044.01.096.062.106.043.01.101-.014.105-.062l.096-.577c.01-.043-.009-.096-.062-.106-.038-.01-.096.014-.105.063zm-.707.325l-.096.577c-.009.044.01.096.062.106.043.01.101-.014.105-.062l.096-.577c.01-.044-.009-.096-.062-.106-.038-.01-.096.014-.105.062z" />
        </g>
        <path
            d="M476.504 370.988c-4.012.437-7.871.101-7.871.101l-.392 5.113c-.028 1.371.186 3.947.186 3.947.196 1.808 1.37 3.438 2.887 3.918l5.467-.005.992-.105.277-.029 1.307-.144 5.343-1.165c1.383-.792 2.184-2.643 1.989-4.446l-.668-3.895c-.377-1.88-1.565-4.781-1.565-4.781s-3.94 1.055-7.952 1.491z"
            class="P" />
        <path d="M479.011 371.728c-.034-.313-.316-.543-.626-.51s-.541.318-.507.63.315.543.626.51.54-.318.507-.63z"
            fill="#ffd7a6" />
        <g class="B">
            <path
                d="M470.928 372.705c.22-.431.368-.897.415-1.381.015-.13-.186-.13-.2 0a3.54 3.54 0 0 1-.387 1.28c-.062.116.11.216.172.101zm-2.438 2.029c.754-.182 1.412-.648 1.908-1.233.081-.096-.057-.24-.143-.144-.477.566-1.097 1.007-1.817 1.185-.125.029-.072.221.052.192zm.019 1.448c1.726-.398 3.124-1.818 3.754-3.453.181-.465.291-.954.329-1.458.01-.13-.191-.13-.2 0-.134 1.693-1.179 3.304-2.619 4.177-.411.25-.849.432-1.317.537-.129.034-.076.226.053.197zm16.988-3.491c-1.464-.039-2.91-1.098-3.363-2.508-.038-.125-.234-.072-.191.052a3.97 3.97 0 0 0 3.554 2.652c.129.005.129-.196 0-.196zm-1.507 1.017c-1.417-.629-2.71-1.76-3.173-3.29-.038-.125-.229-.072-.19.052.472 1.578 1.798 2.763 3.263 3.41.114.053.214-.12.1-.172zm1.8.403a4.27 4.27 0 0 1-1.047-.145c-.125-.033-.177.164-.053.193a4.77 4.77 0 0 0 1.1.149c.129.005.129-.197 0-.197zm-9.376-2.916l.673 5.616c.014.124.214.129.2 0l-.673-5.616c-.019-.13-.219-.13-.2 0z" />
        </g>
        <path
            d="M495.543 401.52l-.048-17.722c.077-2.143-1.593-3.947-3.725-4.019s-3.926 1.602-3.998 3.746l.94 18.398c-.005.095.267 2.033.563 2.052.639.979 1.76 1.612 3.01 1.559 1.302-.053 2.409-.825 2.953-1.918.1-.015.329-1.957.305-2.096z"
            class="E" />
        <g class="P">
            <path
                d="M495.596 391.28l-.096-7.482c.077-2.143-1.593-3.947-3.725-4.019s-3.927 1.602-3.998 3.746l.367 8.005c-.009 0 3.592.604 7.452-.25z" />
            <path
                d="M471.977 384.278c-2.185-.355-3.669-2.422-3.311-4.618s2.409-3.689 4.594-3.329l18.944 3.372c2.108.345 3.539 2.34 3.196 4.46a3.87 3.87 0 0 1-4.298 3.232v.005l-19.125-3.122z" />
        </g>
        <path
            d="M495.467 388.82c-1.913.331-3.874.451-5.811.341l-1.603-.149c-.128-.014-.124.182 0 .201 1.942.25 3.922.245 5.868.029l1.603-.225c.124-.024.071-.216-.057-.197z"
            class="B" />
        <path d="M495.533 401.654l.139 2.925 3.578 1.492-10.319.403-.234-4.614 6.836-.206z" class="M" />
        <path d="M518.528 389.204l2.418 1.625 3.321-2.004-5.811 8.58-3.831-2.552 3.903-5.649z" fill="url(#D)"
            class="N" />
        <path d="M495.533 401.654l.139 2.925 3.578 1.492-10.319.403-.234-4.614 6.836-.206z" fill="url(#E)" class="N" />
        <g class="B">
            <path
                d="M496.727 405.088l-.516.264c-.038.019-.057.082-.033.12.028.044.076.053.119.034l.516-.264c.039-.02.058-.082.034-.12-.029-.049-.077-.058-.12-.034zm-.682-.379l-.516.265c-.038.019-.057.081-.034.12.029.043.077.053.12.033l.516-.264c.039-.019.058-.082.034-.12s-.077-.053-.12-.034zm-20.49-27.903l9.712 1.607 4.861.944 2.123.466c.654.182 1.303.446 1.808.911 1.083.988 1.436 2.561 1.374 3.98-.005.13.196.13.201 0 .057-1.299-.225-2.671-1.04-3.702-.854-1.079-2.2-1.391-3.483-1.659-3.292-.681-6.597-1.305-9.908-1.861l-5.591-.883c-.129-.019-.186.178-.057.197zm10.197-1.199a2.82 2.82 0 0 0-.612.221c-.191.096-.387.212-.516.385-.034.043-.005.11.038.139.052.029.105.01.138-.038.106-.14.297-.246.459-.323a2.92 2.92 0 0 1 .55-.192c.12-.029.067-.221-.057-.192zm-11.28.887a3.46 3.46 0 0 0-1.775-.211c-.129.019-.072.211.052.192.563-.077 1.141 0 1.665.211.124.053.177-.144.058-.192zm-.482-.68h.058.033.024c.015 0 .019 0 .024.005s.024.004.034.009c.023.005.047.015.066.024s.039.015.048.024c.019.015.043.024.062.039l.015.014c.009.005.014.015.024.024.019.019.033.039.052.058.034.043.11.038.144 0s.033-.096 0-.144c-.148-.193-.402-.279-.636-.245-.053.009-.086.077-.072.125s.067.072.124.067zm10.486-.543a.65.65 0 0 0-.272.197c-.072.086-.124.192-.148.302-.01.053.014.11.071.125.048.009.115-.015.124-.072l.015-.067c.004-.01.009-.024.009-.034l.043-.077c.005-.009.014-.019.019-.028.024-.034-.005.004.01-.015a.72.72 0 0 1 .047-.053c.01-.009.015-.014.024-.019s.01-.009.015-.014l.004-.005c0 .005.015-.009.019-.014.01-.005.02-.015.029-.019l.029-.015c.004-.005.009-.005.019-.009s.024-.01 0 0c.024-.01.048-.024.062-.048s.019-.053.009-.077c-.019-.034-.076-.077-.128-.058z" />
        </g>
        <g class="E">
            <path
                d="M484.567 361.329h.009c4.728.93 9.637 1.132 9.637 1.132v.048l.1.004a2.54 2.54 0 0 1 2.28 2.768c-.129 1.395-1.364 2.422-2.753 2.292-.019 0-.033-.005-.052-.009-3.459-.211-10.571-1.924-10.571-1.924l.004-.009c-1.183-.374-1.836-1.64-1.464-2.83s1.564-1.717 2.81-1.472zm-39.014-23.448l1.899 1.05c-4.547-3.995.176-1.131 1.55-.278.157.096.367-.009.372-.192v-.043l-.005.005c.053-1.151.339-1.045.673-.456l.043-.024c.568 1.032 1.259 3.314 1.259 3.314l-.014.015c.358.916.038 1.99-.811 2.556a2.11 2.11 0 0 1-2.934-.614c-.091-.134-1.088-1.127-1.522-1.506-3.997-3.477.153-1.002.153-1.002-4.995-4.221.611-.94.611-.94-3.373-2.379-2.61-2.561-1.274-1.885zm36.42 22.719c-.879-.192-1.329-.092-.244.846z" />
        </g>
        <path
            d="M476.733 368.24l4.317.053c.396.005.721-.312.725-.71l.11-8.973c.005-.398-.31-.724-.706-.729l-4.317-.053c-.396-.005-.721.312-.725.71l-.11 8.973c-.005.398.31.725.706.729z"
            class="B" />
        <path d="M476.032 366.825l5.748.07.092-7.596-5.747-.07-.093 7.596z" fill="#d2dcfa" />
        <path d="M478.345 361.225c.005-.351.292-.63.641-.625a.63.63 0 1 1-.019 1.269c-.349-.005-.627-.293-.622-.644z"
            class="B" />
        <g class="K">
            <path
                d="M480.583 358.648c0-.172.143-.316.319-.311s.315.143.31.321-.143.316-.319.312-.315-.149-.31-.322zm-.492-.004c0-.058.048-.106.106-.106s.106.048.106.106-.048.107-.106.107-.106-.048-.106-.107z" />
        </g>
        <path
            d="M481.838 361.483c.038.12-.019.311-.196.374-1.522.537-6.707 2.426-.758 1.386l-2.004.825c-1.364.618-1.703 1.328 2.256.187 0 0-6.063 2.316.344 1.064 0 0-4.523 1.689.677.749.568-.101 1.961-.259 2.123-.24 1.164.115 2.204-.739 2.319-1.909a2.13 2.13 0 0 0-1.465-2.24l-.005-.019s-2.104-.878-3.291-1.137"
            class="E" />
    </g>
    <g clip-path="url(#M)" fill="#00438b">
        <path
            d="M487.634 329.833c1.233 0 2.232-.977 2.232-2.182s-.999-2.182-2.232-2.182-2.231.977-2.231 2.182.999 2.182 2.231 2.182zm5.683-4.429c-.351 0-.701-.131-.968-.393a6.69 6.69 0 0 0-4.703-1.904c-1.723 0-3.36.642-4.604 1.808a1.39 1.39 0 0 1-1.932-.038c-.523-.535-.504-1.382.039-1.89 1.755-1.647 4.061-2.551 6.497-2.551 2.507 0 4.864.954 6.639 2.69.535.523.535 1.37 0 1.889-.268.258-.618.389-.968.389zm3.418-3.406c-.373 0-.747-.15-1.015-.442-2.058-2.236-5.001-3.517-8.074-3.517-3.03 0-5.946 1.254-7.996 3.436a1.39 1.39 0 0 1-1.933.081c-.554-.5-.594-1.347-.082-1.889 2.569-2.733 6.217-4.302 10.011-4.302 3.848 0 7.531 1.604 10.105 4.402.503.55.46 1.393-.103 1.889-.259.231-.586.342-.913.342zm3.522-3.601a1.38 1.38 0 0 1-.96-.385c-3.128-3.006-7.264-4.66-11.652-4.66-4.344 0-8.452 1.628-11.573 4.583-.543.515-1.408.5-1.932-.031a1.31 1.31 0 0 1 .032-1.889c3.628-3.44 8.417-5.338 13.473-5.338 5.108 0 9.924 1.928 13.568 5.426.539.52.547 1.366.016 1.89a1.36 1.36 0 0 1-.972.404z" />
    </g>
    <g clip-path="url(#N)" class="B">
        <path
            d="M376.081 218.355c3.081 0 5.578-2.486 5.578-5.553s-2.497-5.554-5.578-5.554-5.578 2.487-5.578 5.554 2.498 5.553 5.578 5.553zm14.205-11.274a3.42 3.42 0 0 1-2.42-.999 16.56 16.56 0 0 0-11.756-4.849 16.6 16.6 0 0 0-11.51 4.604c-1.367 1.303-3.532 1.254-4.83-.098a3.39 3.39 0 0 1 .098-4.809 23.39 23.39 0 0 1 16.242-6.494c6.267 0 12.159 2.429 16.596 6.846 1.338 1.333 1.338 3.487 0 4.81a3.45 3.45 0 0 1-2.42.989zm8.547-8.668a3.41 3.41 0 0 1-2.538-1.126c-5.145-5.691-12.504-8.953-20.187-8.953-7.575 0-14.864 3.193-19.99 8.747-1.279 1.381-3.443 1.479-4.83.206s-1.486-3.428-.207-4.809c6.424-6.955 15.544-10.951 25.027-10.951 9.621 0 18.829 4.084 25.263 11.205a3.4 3.4 0 0 1-.256 4.81c-.649.587-1.465.871-2.282.871zm8.802-9.168c-.866 0-1.732-.323-2.401-.979-7.821-7.65-18.16-11.862-29.129-11.862a41.46 41.46 0 0 0-28.932 11.666 3.42 3.42 0 0 1-4.83-.079c-1.319-1.351-1.279-3.506.078-4.809 9.07-8.757 21.043-13.586 33.684-13.586a48.25 48.25 0 0 1 33.92 13.811c1.348 1.323 1.368 3.477.04 4.81-.66.685-1.545 1.028-2.43 1.028z" />
    </g>
    <g clip-path="url(#O)" class="B">
        <path
            d="M673.647 263.506c1.409 0 2.552-1.182 2.552-2.64s-1.143-2.64-2.552-2.64-2.552 1.182-2.552 2.64 1.142 2.64 2.552 2.64zm6.498-5.359c-.4 0-.801-.159-1.107-.475-1.436-1.485-3.349-2.305-5.378-2.305-1.972 0-3.844.778-5.266 2.188-.626.62-1.616.596-2.21-.046s-.576-1.672.045-2.286c2.007-1.993 4.645-3.087 7.431-3.087 2.867 0 5.562 1.155 7.592 3.254.612.634.612 1.658 0 2.286-.306.312-.706.471-1.107.471zm3.911-4.12c-.428 0-.855-.182-1.162-.536-2.353-2.705-5.72-4.255-9.235-4.255-3.466 0-6.801 1.518-9.146 4.157-.585.657-1.575.703-2.209.098a1.66 1.66 0 0 1-.095-2.286c2.939-3.305 7.111-5.205 11.45-5.205 4.402 0 8.614 1.941 11.558 5.326a1.66 1.66 0 0 1-.117 2.286c-.297.28-.671.415-1.044.415zm4.023-4.358a1.53 1.53 0 0 1-1.098-.466c-3.578-3.636-8.308-5.638-13.326-5.638-4.969 0-9.668 1.969-13.237 5.545-.621.624-1.611.605-2.21-.037s-.585-1.667.036-2.286c4.15-4.163 9.627-6.458 15.411-6.458 5.841 0 11.35 2.333 15.518 6.565.617.628.626 1.653.018 2.286-.301.326-.706.489-1.112.489z" />
    </g>
    <g clip-path="url(#P)" class="B">
        <path
            d="M1102.52 217.145c.9 0 1.63-.739 1.63-1.65s-.73-1.65-1.63-1.65c-.89 0-1.62.739-1.62 1.65s.73 1.65 1.62 1.65zm4.14-3.35c-.26 0-.51-.099-.71-.297-.91-.928-2.13-1.44-3.42-1.44-1.25 0-2.44.486-3.35 1.368-.4.387-1.03.372-1.4-.029a1.02 1.02 0 0 1 .02-1.429c1.28-1.246 2.96-1.929 4.73-1.929 1.83 0 3.54.721 4.83 2.034a1.02 1.02 0 0 1 0 1.428c-.19.195-.45.294-.7.294zm2.49-2.575a.98.98 0 0 1-.74-.334c-1.5-1.691-3.64-2.66-5.88-2.66-2.2 0-4.33.949-5.82 2.599-.37.41-1 .439-1.4.061a1.01 1.01 0 0 1-.06-1.429c1.87-2.066 4.52-3.253 7.28-3.253a9.86 9.86 0 0 1 7.36 3.329 1.03 1.03 0 0 1-.08 1.428.96.96 0 0 1-.66.259zm2.56-2.723c-.26 0-.51-.096-.7-.291a11.94 11.94 0 0 0-8.48-3.524c-3.16 0-6.15 1.231-8.43 3.465-.39.39-1.02.379-1.4-.023a1.02 1.02 0 0 1 .02-1.429c2.64-2.601 6.13-4.036 9.81-4.036 3.72 0 7.22 1.458 9.87 4.103a1.01 1.01 0 0 1 .01 1.429.96.96 0 0 1-.7.306z" />
    </g>
    <g clip-path="url(#Q)" class="B">
        <path
            d="M768.077 416.923c.77 0 1.394-.711 1.394-1.587s-.624-1.587-1.394-1.587-1.395.71-1.395 1.587.624 1.587 1.395 1.587zm3.55-3.222a.8.8 0 0 1-.605-.286c-.784-.892-1.83-1.385-2.939-1.385-1.077 0-2.1.467-2.877 1.315a.78.78 0 0 1-1.208-.028 1.07 1.07 0 0 1 .025-1.374c1.097-1.197 2.538-1.855 4.06-1.855 1.567 0 3.04.694 4.149 1.956.335.381.335.996 0 1.374-.167.188-.386.283-.605.283zm2.138-2.477a.81.81 0 0 1-.634-.321c-1.286-1.626-3.126-2.558-5.047-2.558-1.894 0-3.716.912-4.997 2.499-.32.394-.861.422-1.208.059s-.371-.98-.052-1.375c1.606-1.987 3.886-3.128 6.257-3.128 2.405 0 4.707 1.167 6.316 3.201a1.07 1.07 0 0 1-.064 1.374c-.162.168-.366.249-.571.249zm2.201-2.619a.8.8 0 0 1-.601-.28c-1.955-2.186-4.54-3.389-7.282-3.389-2.715 0-5.283 1.184-7.233 3.333a.78.78 0 0 1-1.207-.022 1.07 1.07 0 0 1 .019-1.374c2.268-2.502 5.261-3.882 8.421-3.882 3.192 0 6.203 1.402 8.48 3.946a1.07 1.07 0 0 1 .01 1.374c-.165.196-.386.294-.607.294z" />
    </g>
    <g clip-path="url(#R)" class="B">
        <path
            d="M983.186 348.995c.693 0 1.255-.622 1.255-1.389s-.562-1.388-1.255-1.388-1.255.622-1.255 1.388.562 1.389 1.255 1.389zm3.196-2.819c-.197 0-.394-.083-.545-.25-.706-.781-1.646-1.212-2.645-1.212-.969 0-1.89.409-2.589 1.151-.308.326-.795.314-1.087-.024a.92.92 0 0 1 .022-1.203c.987-1.048 2.284-1.623 3.654-1.623 1.41 0 2.736.607 3.734 1.712a.91.91 0 0 1 0 1.202c-.15.164-.347.247-.544.247zm1.924-2.167c-.21 0-.42-.095-.571-.281-1.157-1.423-2.813-2.239-4.542-2.239-1.704 0-3.344.799-4.497 2.187-.288.345-.775.37-1.087.052a.92.92 0 0 1-.047-1.203c1.446-1.738 3.498-2.737 5.631-2.737 2.165 0 4.237 1.021 5.685 2.801a.92.92 0 0 1-.058 1.202.72.72 0 0 1-.514.218zm1.98-2.292a.73.73 0 0 1-.54-.245c-1.76-1.912-4.086-2.965-6.554-2.965-2.444 0-4.754 1.036-6.51 2.916-.305.328-.792.319-1.087-.019a.92.92 0 0 1 .018-1.203c2.041-2.189 4.735-3.396 7.579-3.396 2.873 0 5.582 1.227 7.632 3.453.303.33.308.869.009 1.202-.148.171-.348.257-.547.257z" />
    </g>
    <g clip-path="url(#S)">
        <use xlink:href="#X" class="M" />
        <g opacity=".76">
            <use xlink:href="#X" opacity=".76" fill="url(#F)" />
        </g>
        <use xlink:href="#Y" class="M" />
        <g class="N">
            <use xlink:href="#Y" fill="url(#G)" class="N" />
        </g>
        <g class="E">
            <path
                d="M997.032 346.951c.093.008.189 0 .285-.032.345-.116.525-.477.403-.804s-.503-.499-.848-.381a.61.61 0 0 0-.112.053c.002.036-.009.038-.029.016l-.123.237c-.056.098-.224.329-.372-.146-.152-.493-.216-.923-.239-1.476-.087.207-.349.418-.486.367s.073-.432.114-.57c-.162.241-.75.732-.925.683-.139-.04-.068-.253-.01-.426-.393.526-1.135 1.092-1.829 1.244l.297 1.557c.086.696.416 1.418 1.258 1.467l.253.951c.216.769 1.05 1.229 1.86 1.024s1.295-.997 1.079-1.766l-.576-1.998zm1.089 3.931c-.179-.769.328-1.529 1.132-1.696.034-.008.069-.012.102-.016l.002-.006c.221-.045.459-.018.703.071a1.45 1.45 0 0 1 .22.091c1.91.923 4.33 5.091 4.62 6.829 0 .002.05.122.06.183.15.643-.27 1.278-.95 1.418-.63.133-1.25-.219-1.45-.794-1.52-2.979-3.978-5.318-3.978-5.318l.002-.006a1.41 1.41 0 0 1-.463-.756zm-3.999.466c.239-.679-.141-1.412-.85-1.637-.029-.01-.06-.016-.091-.024v-.006c-.195-.061-.411-.059-.646-.002-.071.016-.139.036-.206.063-1.824.659-4.428 4.202-4.873 5.746 0 .002-.054.107-.073.162-.199.568.119 1.18.711 1.369.557.177 1.157-.083 1.394-.586 1.677-2.55 4.14-4.44 4.14-4.44l-.002-.006a1.3 1.3 0 0 0 .496-.639z" />
            <path
                d="M993.099 359.435l-.652-.694.002-.002c-1.571-1.525-2.94-3.306-2.951-3.318-.407-.483-1.149-.56-1.656-.175a1.08 1.08 0 0 0-.185 1.572c.006.006.01.012.017.018.968 1.231 3.451 3.45 3.451 3.45l.004-.004.649.69c.449.347 1.107.284 1.473-.142s.241-.968-.152-1.395z" />
        </g>
        <g class="W">
            <path
                d="M994.415 348.736s.404.03.891-.134l-.664.945-.227-.811zm-.418-1.682c-.002.121-.158.218-.348.214s-.339-.105-.337-.226.158-.217.348-.213.339.105.337.225zm2.149-.704c.058.108-.029.261-.198.344s-.352.061-.41-.046.029-.261.197-.344.352-.063.411.046z"
                class="U" />
        </g>
        <path
            d="M992.655 352.727s-.478-1.764-.6-2.991c0 0 1.205-.42 2.462-.558 0 0 .231.728 1.577.649 1.345-.102 1.53-.828 1.53-.828 1.265-.034 2.456.195 2.456.195.06 1.231-.147 3.042-.147 3.042.867 1.593-.05 2.404-.05 2.404l.387 4.401-3.398.702v.008l-.034-.002-.031.006v-.008l-3.47-.237-.272-4.41s-1.031-.677-.41-2.373z"
            class="P" />
        <g class="B">
            <path
                d="M998.117 349.069c-.206.708-.925 1.188-1.661 1.318a2.35 2.35 0 0 1-.638.024c-.056-.006-.056.077 0 .083.78.082 1.619-.247 2.093-.845a1.64 1.64 0 0 0 .291-.558c.015-.051-.069-.073-.085-.022zm-3.046 1.162c-.469-.144-.861-.476-1.067-.901-.023-.049-.1-.006-.075.041.217.445.629.789 1.119.939.052.016.075-.063.023-.079zm4.882 1.984a2.13 2.13 0 0 0-.675-.678c-.048-.029-.091.042-.043.072a2.04 2.04 0 0 1 .643.648c.029.045.104.004.075-.042z" />
            <path
                d="M999.534 349.152c.043.839.041 1.687-.117 2.515-.01.052.075.075.086.022.158-.836.162-1.69.118-2.537-.002-.053-.089-.053-.087 0zm-6.818 3.586a1.98 1.98 0 0 1 .542-.727c.041-.036-.021-.095-.063-.06a2.07 2.07 0 0 0-.564.764c-.019.051.064.073.085.023z" />
            <path
                d="M992.46 349.679c.083.832.26 1.653.538 2.446.019.051.102.029.086-.022a10.47 10.47 0 0 1-.535-2.424c-.006-.053-.093-.053-.089 0zm4.702-2.945c-.058.073-.062.176-.041.262s.066.172.137.229c.058.046.135.077.21.055s.127-.094.141-.167c.021-.107-.008-.219-.068-.308-.032-.045-.106-.004-.075.041.043.064.068.139.064.214-.002.049-.021.11-.07.136-.044.021-.094.004-.133-.024-.055-.04-.092-.101-.113-.162-.025-.075-.029-.166.025-.233.015-.017.002-.047-.016-.057s-.046-.004-.061.014z" />
        </g>
        <use xlink:href="#Z" class="E" />
        <use xlink:href="#Z" class="U W" />
        <g class="K">
            <path
                d="M987.44 367.484l-1.839-2.669c-.489-.752-.241-1.738.552-2.2s1.831-.227 2.317.525l1.731 2.712s-1.159 1.036-2.761 1.632z" />
            <path
                d="M995.563 363.753c.941-.201 1.531-1.086 1.321-1.978s-1.145-1.454-2.084-1.255l-8.154 1.855c-.908.193-1.48 1.049-1.276 1.911.199.842 1.066 1.377 1.953 1.219v.002l8.24-1.754z" />
        </g>
        <path
            d="M986.929 366.688c.779-.329 1.523-.741 2.204-1.23l.547-.423c.041-.035-.019-.092-.062-.059-.636.529-1.347.975-2.097 1.347l-.638.292c-.05.024-.006.095.046.073z"
            class="B" />
        <path d="M989.962 371.016l.657 1.032-.937 1.333 3.834-2.237-1.027-1.629-2.527 1.501z" class="V" />
        <g class="B">
            <path
                d="M990.36 372.536l.253-.028c.019-.002.039-.016.037-.036s-.016-.038-.037-.036l-.253.028c-.019.002-.04.016-.038.036s.017.04.038.036zm.155-.284l.253-.028c.019-.002.04-.016.038-.036s-.017-.038-.038-.036l-.253.028c-.018.002-.039.016-.037.036s.016.038.037.036z" />
        </g>
        <path
            d="M996.803 358.493c1.754-.119 3.387-.539 3.387-.539l.56 2.042c.12.554.22 1.611.22 1.611.06.746-.32 1.493-.94 1.799l-2.342.401-.434.029-.121.008-.571.04-2.382-.079c-.654-.219-1.141-.91-1.197-1.653l-.014-1.626c.016-.789.303-2.049.303-2.049a28.01 28.01 0 0 0 3.531.016z"
            class="K" />
        <path d="M995.987 358.962c-.011-.13.093-.242.228-.252s.256.088.264.217-.093.242-.229.252-.255-.087-.263-.217z"
            fill="#e0e8ed" />
        <g class="B">
            <path
                d="M999.4 358.732a1.46 1.46 0 0 1-.27-.501c-.015-.052-.1-.03-.083.021.056.19.153.365.278.521.015.018.037.028.06.016.017-.012.027-.04.015-.057zm1.13.606c-.31-.018-.615-.15-.858-.34-.044-.034-.104.026-.063.059.263.206.581.346.921.366.06.002.06-.081 0-.085zm.14.591c-.745-.033-1.447-.489-1.833-1.083a1.93 1.93 0 0 1-.248-.54c-.014-.052-.097-.03-.083.021.198.71.813 1.302 1.534 1.559a2.17 2.17 0 0 0 .63.126c.06.002.06-.081 0-.083zm-7.573-.002c.659-.13 1.224-.694 1.316-1.327.008-.052-.077-.075-.084-.022-.087.61-.621 1.146-1.253 1.27-.056.01-.033.089.021.079zm.761.285c.582-.375 1.06-.951 1.143-1.629.006-.054-.081-.054-.088 0-.079.647-.544 1.201-1.099 1.558-.048.03-.004.101.044.071zm-.776.309a1.97 1.97 0 0 0 .459-.142c.021-.01.027-.039.017-.057s-.037-.024-.06-.016a1.94 1.94 0 0 1-.439.134c-.023.004-.035.032-.031.051.006.026.031.036.054.03zm3.69-1.943l.144 2.323c.004.054.089.054.087 0l-.144-2.323c-.004-.053-.091-.053-.087 0z" />
        </g>
        <path
            d="M986.635 370.352l2.743-6.81c.299-.836 1.255-1.284 2.136-1s1.353 1.192 1.054 2.028l-3.211 6.94c-.012.037-.422.743-.544.708-.412.282-.964.361-1.465.159-.524-.211-.856-.67-.908-1.171-.04-.022.164-.803.195-.854z"
            class="E" />
        <g class="K">
            <path
                d="M988.19 366.407l1.191-2.865c.299-.836 1.255-1.284 2.136-1s1.353 1.192 1.053 2.028l-1.379 3.026a9.8 9.8 0 0 1-3.001-1.189z" />
            <path
                d="M999.65 363.57c.93-.243 1.48-1.154 1.22-2.036-.25-.881-1.213-1.402-2.142-1.159l-8.053 2.215c-.898.232-1.425 1.112-1.178 1.964.241.833 1.132 1.33 2.012 1.133v.002l8.141-2.119z" />
        </g>
        <path
            d="M988.569 365.549c.729.408 1.509.743 2.317.988l.696.183c.054.012.077-.067.023-.079-.821-.185-1.615-.473-2.367-.836l-.625-.326c-.048-.029-.092.042-.044.07z"
            class="B" />
        <path d="M986.619 370.407l-.505 1.106-1.688.048 4.142 1.668.806-1.739-2.755-1.083z" class="V" />
        <g class="B">
            <path
                d="M985.551 371.602l.173.18c.012.014.04.014.054 0s.015-.036 0-.052l-.172-.18c-.013-.014-.04-.014-.055 0s-.013.038 0 .052zm.335-.046l.172.18c.013.014.04.014.055 0s.015-.036 0-.052l-.173-.18c-.012-.014-.04-.014-.054 0s-.015.036 0 .052z" />
        </g>
        <path d="M993.191 361.084c.144.006.397.055.501.148z" fill="#9b8da6" />
        <g class="B">
            <path
                d="M997.726 360.594l-3.518.915-1.76.499-1.567.465c-.391.111-.802.215-1.149.425-.129.077-.239.169-.322.29a2.43 2.43 0 0 0-.167.282c-.291.562-.496 1.167-.7 1.763l-.405 1.261-.006.021c-.015.051.068.073.083.022l.33-1.042.68-1.791c.095-.205.195-.442.367-.599.136-.127.312-.211.483-.282a5.88 5.88 0 0 1 .6-.204l3.161-.921 3.476-.917.433-.106c.058-.016.035-.095-.019-.081z" />
            <path
                d="M998.139 360.647a1.49 1.49 0 0 1 .699-.207c.057-.002.057-.085 0-.084-.264.01-.52.085-.743.22-.048.028-.004.099.044.071zm.258-.533c-.105-.004-.209.05-.264.136-.012.018-.004.046.017.059s.049.004.062-.017l.012-.02.021-.022.015-.012.032-.018.021-.008.032-.01c.017-.002.021-.004.023-.004.008 0 .021-.002.032 0 .023 0 .044-.02.044-.042s-.021-.042-.047-.042zm-4.698.783c.01.002.021.004.029.008s.015.006.019.008l.028.014c.019.012.004.002.01.008.015.01.022.016.028.024s.019.018.013.012l.019.026c.008.018.008.024.006.014.006.018.013.028.023.034s.023.008.034.004c.021-.006.04-.03.032-.052-.036-.088-.116-.161-.216-.181-.023-.004-.048.006-.055.03s.005.046.03.051zm6.272-1.016c.149.628.419 1.387-.043 1.957-.142.174-.352.258-.566.343l-1.01.347-1.334.389-1.492.404-1.463.387-1.267.339-.898.265-.264.096c-.185.081-.324.229-.43.389-.166.248-.274.534-.374.813l-.36 1.092-.209.584c-.019.05.064.071.083.022l.401-1.17.355-.976c.104-.225.237-.468.453-.614.087-.059.173-.088.268-.122l.827-.25 1.228-.332 1.445-.381 1.5-.404 1.374-.394 1.072-.357c.205-.079.438-.158.611-.294.212-.164.332-.44.372-.687.06-.327 0-.663-.08-.982-.03-.162-.08-.322-.12-.483-.01-.056-.091-.034-.079.019z" />
        </g>
        <path
            d="M991.822 360.92c-.198-.177-.709-.576-.778-.609-.49-.243-.681-.815-.428-1.282.223-.407.709-.596 1.156-.48l.006-.005s2.978.556 1.403.753c-.085.01-.125.109-.073.176.465.574 2.03 2.55-.054.704l.582.799c.38.564.332.915-.942-.484 0 0 1.804 2.352-.409.314-.002 0 1.355 1.74-.463.114z"
            class="E" />
        <path d="M997.759 360.595l-6.851.341c-.197-.035-1.891.669-1.891.669l.131.469 8.909-1.019-.298-.46z"
            fill="#92add9" />
        <path
            d="M989.041 360.027c-.051.07-.059.162-.038.242.011.039.074.022.063-.016-.019-.066-.01-.138.03-.194.011-.014.002-.034-.013-.042s-.031-.004-.042.01z"
            fill="#5c3146" />
        <path d="M991.891 361.346l5.86-.749.305.458-4.794.607-1.371-.316z" fill="#bad4fc" />
        <path d="M984.087 357.49l6.806-.947 2.427 5.119-6.409.631-2.824-4.803z" fill="#f2f6fc" />
        <path d="M993.05 361.167l.271.495-6.44.643-.193-.44 6.362-.698z" fill="#d6e5fc" />
        <path d="M988.14 359.902c-.141-.174-.123-.41.04-.524s.41-.068.552.106.123.41-.04.524-.41.068-.552-.106z"
            fill="#b3c0ff" />
        <g class="E">
            <path
                d="M998.919 358.062l.007-.004c2.104-1 4.104-2.317 4.114-2.325.58-.346 1.34-.184 1.7.365.37.546.2 1.27-.38 1.615l-.03.012c-1.4.903-4.652 2.296-4.652 2.296l-.002-.006c-.567.197-1.197-.079-1.407-.617s.106-1.042.65-1.336z" />
            <path
                d="M996.036 359.433s-1.124.345-1.374.241c-.199-.085.416-.426 1.303-.771.669-.261 3.092-.9 3.096-.902.524-.282 1.189-.108 1.489.387.29.497.11 1.128-.41 1.41a.94.94 0 0 1-.158.069l.004.008s-2.045.909-2.843.403c0 0-.478.595-.937.909-.476.323.146-.817.146-.817s-.8.902-1.029.758.8-1.137.8-1.137l-.736.598c-.527.418-1.186.438.649-1.156z" />
        </g>
    </g>
    <defs>
        <linearGradient id="B" x1="779.492" y1="417.074" x2="779.492" y2="445.858" xlink:href="#a">
            <stop stop-color="#0e0e8c" />
            <stop offset="1" stop-color="#6349e5" stop-opacity="0" />
        </linearGradient>
        <linearGradient id="C" x1="471.949" y1="339.126" x2="478.587" y2="373.638" xlink:href="#a">
            <stop stop-color="#0e0e8c" />
            <stop offset="1" stop-color="#6349e5" stop-opacity="0" />
        </linearGradient>
        <linearGradient id="D" x1="513.225" y1="390.708" x2="525.297" y2="394.24" xlink:href="#a">
            <stop stop-color="#0e0e8c" />
            <stop offset="1" stop-color="#6349e5" stop-opacity="0" />
        </linearGradient>
        <linearGradient id="E" x1="492.607" y1="395.345" x2="494.756" y2="411.02" xlink:href="#a">
            <stop stop-color="#0e0e8c" />
            <stop offset="1" stop-color="#6349e5" stop-opacity="0" />
        </linearGradient>
        <linearGradient id="F" x1="998.674" y1="336.782" x2="998.674" y2="355.916" xlink:href="#a">
            <stop stop-color="#0e0e8c" />
            <stop offset="1" stop-color="#6349e5" stop-opacity="0" />
        </linearGradient>
        <linearGradient id="G" x1="995.155" y1="339.169" x2="995.313" y2="348.325" xlink:href="#a">
            <stop stop-color="#0e0e8c" />
            <stop offset="1" stop-color="#6349e5" stop-opacity="0" />
        </linearGradient>
        <clipPath id="H">
            <path transform="translate(325.707 209.657)" d="M0 0h101.021v292.614H0z" class="B" />
        </clipPath>
        <clipPath id="I">
            <path transform="translate(649.078 260.613)" d="M0 0h49.26v141.986H0z" class="B" />
        </clipPath>
        <clipPath id="J">
            <path transform="translate(1086.63 217.148)" d="M0 0h31.874v92.726H0z" class="B" />
        </clipPath>
        <clipPath id="K">
            <path transform="translate(766.369 413.442)" d="M0 0h26.126v62.703H0z" class="B" />
        </clipPath>
        <clipPath id="L">
            <path transform="translate(444.146 333.32)" d="M0 0h80.12v73.153H0z" class="B" />
        </clipPath>
        <clipPath id="M">
            <path transform="translate(473.755 310.677)" d="M0 0h27.868v19.159H0z" class="B" />
        </clipPath>
        <clipPath id="N">
            <path transform="translate(341.383 169.596)" d="M0 0h69.67v48.769H0z" class="B" />
        </clipPath>
        <clipPath id="O">
            <path transform="translate(657.771 240.329)" d="M0 0h31.874v23.181H0z" class="B" />
        </clipPath>
        <clipPath id="P">
            <path transform="translate(1092.42 202.659)" d="M0 0h20.284v14.488H0z" class="B" />
        </clipPath>
        <clipPath id="Q">
            <path transform="translate(759.402 402.991)" d="M0 0h17.417v13.934H0z" class="B" />
        </clipPath>
        <clipPath id="R">
            <path transform="translate(975.379 336.805)" d="M0 0h15.676v12.192H0z" class="B" />
        </clipPath>
        <clipPath id="S">
            <path transform="translate(984.087 340.288)" d="M0 0h20.901v33.093H0z" class="B" />
        </clipPath>
        <path id="T"
            d="M849.102 365.998l-5.521 6.636-5.644 6.514-5.765 6.41-5.887 6.305 5.504-6.636 5.643-6.514 5.766-6.41 5.904-6.305z" />
        <path id="U"
            d="M963.587 364.933l-6.81 5.573-6.915 5.435-7.002 5.312-7.124 5.173 6.811-5.574 6.914-5.434 7.002-5.312 7.124-5.173z" />
        <path id="V"
            d="M786.757 426.662c-.103-.063-.21-.117-.322-.162-.067-.03-.13-.051-.197-.074-1.36-.749-3.197-1.114-4.646-1.288 0 0-.671 1.207-2.228 1.21h-.003c-.009 0-.021 0-.03.003h-.031v.003h-.003c-1.557.003-2.231-1.201-2.231-1.201-1.273.156-2.845.464-4.13 1.048-.121.03-.246.069-.37.123a2.25 2.25 0 0 0-.322.161c-1.296.737-2.693 2.558-3.856 4.579 0 0 1.06 1.734 3.422 3.237l1.211-1.77-.069 10.72s1.855.689 6.382.692h.033.033c4.527-.018 6.382-.716 6.382-.716l-.112-10.914 1.5 2.17c2.368-1.497 3.431-3.227 3.431-3.227-1.16-2.031-2.551-3.854-3.844-4.594z" />
        <path id="W"
            d="M467.091 359.401s-1.245-4.225-1.631-7.184c0 0 2.667-1.089 5.529-1.526 0 0 .639 1.713 3.707 1.41 3.062-.359 3.134-2.153 3.134-2.153 2.891-.182 5.915.288 5.915.288.253 2.973-.067 7.371-.067 7.371 2.123 3.784.096 5.818.096 5.818l1.269 10.613-7.705 1.981v.019l-.076-.005-.071.02v-.02l-7.948-.283-1.011-10.642s-2.414-1.554-1.141-5.707z" />
        <path id="X"
            d="M994.131 343.412c-.226-1.233.653-2.525 1.891-2.953s2.708-.029 3.624.868l.694.736c.39.373.88.655 1.41.813.32.096.66.15.95.298.3.147.56.424.55.743-.01.562-.79.811-1.37.702.24.391.48.851.31 1.271-.18.43-.74.625-1.22.558s-.9-.333-1.296-.592c.037.335.072.685-.055.998s-.473.576-.82.501c-.165-.035-.302-.138-.433-.236-.615-.472-1.215-.969-1.911-1.324s-1.513-.558-2.282-.391" />
        <path id="Y"
            d="M993.964 348.044c-.858-.481-1.756-1.156-1.916-2.515-.083-.714.412-1.517.842-1.908.551-.497 1.22-.897 1.964-1.045s1.566-.024 2.165.422c.686.511 1.143 1.558 1.403 2.347.261.797.052 2.221-1.578 2.805-.436.156-1.444-.118-1.88-.347-.522-.274-.457.527-1.052.485" />
        <path id="Z"
            d="M989.925 370.973l-4.324-6.158c-.489-.752-.241-1.738.552-2.2s1.831-.227 2.317.525l4.028 6.399c.025.031.394.757.291.832.004.484-.25.955-.713 1.225-.484.282-1.07.272-1.532.024-.041.016-.592-.594-.619-.647z" />
        <linearGradient id="a" gradientUnits="userSpaceOnUse" />
    </defs>
</svg>